<svg xmlns="http://www.w3.org/2000/svg">
<defs>
<clipPath id="clip0_2737_951">
<rect width="20" height="20" fill="white"/>
</clipPath>


<clipPath id="clip0_2737_3935">
<rect width="20" height="20" fill="white"/>
</clipPath>


<clipPath id="clip0_2737_4418">
<rect width="20" height="20" fill="white"/>
</clipPath>


<linearGradient id="paint0_linear_2737_10545" x1="32.0135" y1="52.9894" x2="32.0135" y2="0.0648383" gradientUnits="userSpaceOnUse">
<stop/>
<stop offset="0.12" stop-color="#3B3B3B"/>
<stop offset="0.25" stop-color="#6E6E6E"/>
<stop offset="0.37" stop-color="#9A9A9A"/>
<stop offset="0.5" stop-color="#BFBFBF"/>
<stop offset="0.62" stop-color="#DBDBDB"/>
<stop offset="0.75" stop-color="#EFEFEF"/>
<stop offset="0.87" stop-color="#FBFBFB"/>
<stop offset="1" stop-color="white"/>
</linearGradient>
<linearGradient id="paint1_linear_2737_10545" x1="15.7966" y1="3.8358" x2="49.4947" y2="37.21" gradientUnits="userSpaceOnUse">
<stop stop-color="#2C7DB0"/>
<stop offset="0.15" stop-color="#2A79AC"/>
<stop offset="0.31" stop-color="#276FA0"/>
<stop offset="0.46" stop-color="#215F8C"/>
<stop offset="0.48" stop-color="#205C88"/>
<stop offset="0.7" stop-color="#35406A"/>
<stop offset="0.72" stop-color="#373E68"/>
<stop offset="0.86" stop-color="#3B699C"/>
<stop offset="1" stop-color="#4195D1"/>
</linearGradient>
<linearGradient id="paint2_linear_2737_10545" x1="17.7275" y1="12.386" x2="64.016" y2="12.386" gradientUnits="userSpaceOnUse">
<stop stop-color="#D8E4F5"/>
<stop offset="0.4" stop-color="#DBE6F5"/>
<stop offset="0.8" stop-color="#E7EEF5"/>
<stop offset="1" stop-color="#F1F4F6"/>
</linearGradient>
<linearGradient id="paint3_linear_2737_10545" x1="0.00565604" y1="11.9227" x2="27.6293" y2="11.9227" gradientUnits="userSpaceOnUse">
<stop stop-color="#D8E4F5"/>
<stop offset="0.4" stop-color="#DBE6F5"/>
<stop offset="0.8" stop-color="#E7EEF5"/>
<stop offset="1" stop-color="#F1F4F6"/>
</linearGradient>


<linearGradient id="paint0_linear_2737_4392" x1="17.8435" y1="29.5939" x2="17.8435" y2="0.0362141" gradientUnits="userSpaceOnUse">
<stop/>
<stop offset="0.12" stop-color="#3B3B3B"/>
<stop offset="0.25" stop-color="#6E6E6E"/>
<stop offset="0.37" stop-color="#9A9A9A"/>
<stop offset="0.5" stop-color="#BFBFBF"/>
<stop offset="0.62" stop-color="#DBDBDB"/>
<stop offset="0.75" stop-color="#EFEFEF"/>
<stop offset="0.87" stop-color="#FBFBFB"/>
<stop offset="1" stop-color="white"/>
</linearGradient>
<linearGradient id="paint1_linear_2737_4392" x1="8.80465" y1="2.14208" x2="27.6242" y2="20.7437" gradientUnits="userSpaceOnUse">
<stop stop-color="#2C7DB0"/>
<stop offset="0.15" stop-color="#2A79AC"/>
<stop offset="0.31" stop-color="#276FA0"/>
<stop offset="0.46" stop-color="#215F8C"/>
<stop offset="0.48" stop-color="#205C88"/>
<stop offset="0.7" stop-color="#35406A"/>
<stop offset="0.72" stop-color="#373E68"/>
<stop offset="0.86" stop-color="#3B699C"/>
<stop offset="1" stop-color="#4195D1"/>
</linearGradient>
<linearGradient id="paint2_linear_2737_4392" x1="9.88087" y1="6.91743" x2="35.681" y2="6.91743" gradientUnits="userSpaceOnUse">
<stop stop-color="#D8E4F5"/>
<stop offset="0.4" stop-color="#DBE6F5"/>
<stop offset="0.8" stop-color="#E7EEF5"/>
<stop offset="1" stop-color="#F1F4F6"/>
</linearGradient>
<linearGradient id="paint3_linear_2737_4392" x1="0.0031618" y1="6.6587" x2="15.3999" y2="6.6587" gradientUnits="userSpaceOnUse">
<stop stop-color="#D8E4F5"/>
<stop offset="0.4" stop-color="#DBE6F5"/>
<stop offset="0.8" stop-color="#E7EEF5"/>
<stop offset="1" stop-color="#F1F4F6"/>
</linearGradient>


<clipPath id="clip0_2737_8692">
<rect width="20" height="20" fill="white"/>
</clipPath>


<clipPath id="clip0_2737_4439">
<rect width="14" height="14" fill="white"/>
</clipPath>


<clipPath id="clip0_599_22720">
<rect width="20" height="20" fill="white"/>
</clipPath>
</defs>
<symbol id="add-plus" viewBox="0 0 20 20">
<path d="M16.1551 18.4998H3.84467C2.54968 18.4998 1.49988 17.45 1.49988 16.155V3.84479C1.49988 2.5498 2.54968 1.5 3.84467 1.5H16.1551C17.4501 1.5 18.4999 2.5498 18.4999 3.84479V16.155C18.4999 17.45 17.4501 18.4998 16.1551 18.4998Z" stroke="#107AB0" stroke-width="1.5" stroke-linecap="round" stroke-linejoin="round"/>
<path d="M9.99988 6.18945V13.81" stroke="#107AB0" stroke-width="1.5" stroke-linecap="round" stroke-linejoin="round"/>
<path d="M13.8102 10H6.18958" stroke="#107AB0" stroke-width="1.5" stroke-linecap="round" stroke-linejoin="round"/>
</symbol>
<symbol id="add-plus2" viewBox="0 0 20 20">
<g clip-path="url(#clip0_2737_951)">
<path d="M16.1552 18.4998H3.8448C2.5498 18.4998 1.5 17.45 1.5 16.155V3.84479C1.5 2.5498 2.5498 1.5 3.8448 1.5H16.1552C17.4502 1.5 18.5 2.5498 18.5 3.84479V16.155C18.5 17.45 17.4502 18.4998 16.1552 18.4998Z" stroke="#545F71" stroke-width="1.5" stroke-linecap="round" stroke-linejoin="round"/>
<path d="M10 6.1897V13.8103" stroke="#545F71" stroke-width="1.5" stroke-linecap="round" stroke-linejoin="round"/>
<path d="M13.8103 10H6.1897" stroke="#545F71" stroke-width="1.5" stroke-linecap="round" stroke-linejoin="round"/>
</g>

</symbol>
<symbol id="apps" viewBox="0 0 20 20">
<path d="M1.50049 3.84483V5.60345C1.50049 6.89846 2.5503 7.94828 3.84532 7.94828H5.60394C6.89895 7.94828 7.94876 6.89846 7.94876 5.60345V3.84483C7.94876 2.54981 6.89895 1.5 5.60394 1.5H3.84532C2.5503 1.5 1.50049 2.54981 1.50049 3.84483Z" stroke="#545F71" stroke-width="1.5" stroke-linecap="round" stroke-linejoin="round"/>
<path d="M13.2244 4.13818H18.5002" stroke="#545F71" stroke-width="1.5" stroke-linecap="round" stroke-linejoin="round"/>
<path d="M15.8624 1.5V6.77586" stroke="#545F71" stroke-width="1.5" stroke-linecap="round" stroke-linejoin="round"/>
<path d="M1.50049 14.3966V16.1552C1.50049 17.4503 2.5503 18.5 3.84532 18.5H5.60394C6.89895 18.5 7.94876 17.4503 7.94876 16.1552V14.3966C7.94876 13.1015 6.89895 12.0518 5.60394 12.0518H3.84532C2.5503 12.0518 1.50049 13.1015 1.50049 14.3966Z" stroke="#545F71" stroke-width="1.5" stroke-linecap="round" stroke-linejoin="round"/>
<path d="M12.0518 14.3966V16.1552C12.0518 17.4503 13.1015 18.5 14.3966 18.5H16.1552C17.4503 18.5 18.5 17.4503 18.5 16.1552V14.3966C18.5 13.1015 17.4503 12.0518 16.1552 12.0518H14.3966C13.1015 12.0518 12.0518 13.1015 12.0518 14.3966Z" stroke="#545F71" stroke-width="1.5" stroke-linecap="round" stroke-linejoin="round"/>
</symbol>
<symbol id="arrow1" viewBox="0 0 8 13">
<path d="M0.749774 11.75L6.67285 6.25L0.749775 0.75" stroke="#D9D9D9" stroke-width="1.5" stroke-linecap="round" stroke-linejoin="round"/>
</symbol>
<symbol id="arrow2" viewBox="0 0 13 8">
<path d="M11.75 0.749775L6.25 6.67285L0.75 0.749775" stroke="#545F71" stroke-width="1.5" stroke-linecap="round" stroke-linejoin="round"/>
</symbol>
<symbol id="box" viewBox="0 0 19 19">
<path d="M0.750244 4.56035L9.25024 0.75L17.7502 4.56035L9.25024 8.37069L0.750244 4.56035Z" stroke="#545F71" stroke-width="1.5" stroke-linecap="round" stroke-linejoin="round"/>
<path d="M0.750244 13.9395L9.25024 17.7498L17.7502 13.9395" stroke="#545F71" stroke-width="1.5" stroke-linecap="round" stroke-linejoin="round"/>
<path d="M17.7502 4.56055V13.9399" stroke="#545F71" stroke-width="1.5" stroke-linecap="round" stroke-linejoin="round"/>
<path d="M0.750244 4.56055V13.9399" stroke="#545F71" stroke-width="1.5" stroke-linecap="round" stroke-linejoin="round"/>
<path d="M9.25024 8.66357V17.4567" stroke="#545F71" stroke-width="1.5" stroke-linecap="round" stroke-linejoin="round"/>
</symbol>
<symbol id="calendar" viewBox="0 0 20 20">
<g clip-path="url(#clip0_2737_3935)">
<path d="M1.5 6.18955C1.5 4.89454 2.54981 3.84473 3.84483 3.84473H16.1552C17.4502 3.84473 18.5 4.89454 18.5 6.18955V16.1551C18.5 17.4501 17.4502 18.4999 16.1552 18.4999H3.84483C2.54981 18.4999 1.5 17.4501 1.5 16.1551V6.18955Z" stroke="#545F71" stroke-width="1.5" stroke-linecap="round" stroke-linejoin="round"/>
<path d="M5.31018 1.5V5.60345" stroke="#545F71" stroke-width="1.5" stroke-linecap="round" stroke-linejoin="round"/>
<path d="M14.6898 1.5V5.60345" stroke="#545F71" stroke-width="1.5" stroke-linecap="round" stroke-linejoin="round"/>
<path d="M5.01709 8.53418H14.9826" stroke="#545F71" stroke-width="1.5" stroke-linecap="round" stroke-linejoin="round"/>
</g>

</symbol>
<symbol id="cart" viewBox="0 0 20 20">
<g clip-path="url(#clip0_2737_4418)">
<path d="M4.98388 4.54098H18.5578L16.6253 12.7538C16.3744 13.8201 15.4229 14.5738 14.3274 14.5738H9.45677C8.38561 14.5738 7.44875 13.8526 7.17466 12.8172L4.98388 4.54098ZM4.98388 4.54098L4.09863 1H1.44287" stroke="#545F71" stroke-width="1.5" stroke-linecap="round" stroke-linejoin="round"/>
<path d="M7.64066 18.9998C8.29255 18.9998 8.821 18.4714 8.821 17.8195C8.821 17.1676 8.29255 16.6392 7.64066 16.6392C6.98878 16.6392 6.46033 17.1676 6.46033 17.8195C6.46033 18.4714 6.98878 18.9998 7.64066 18.9998Z" fill="#545F71"/>
<path d="M15.9036 18.9998C16.5555 18.9998 17.0839 18.4714 17.0839 17.8195C17.0839 17.1676 16.5555 16.6392 15.9036 16.6392C15.2517 16.6392 14.7233 17.1676 14.7233 17.8195C14.7233 18.4714 15.2517 18.9998 15.9036 18.9998Z" fill="#545F71"/>
</g>

</symbol>
<symbol id="check1" viewBox="0 0 16 13">
<path d="M0.5 7.55882L4.47059 11.9706L15.5 0.5" stroke="white" stroke-linecap="round" stroke-linejoin="round"/>
</symbol>
<symbol id="clock" viewBox="0 0 21 21">
<path d="M10.5 19C15.1944 19 19 15.1944 19 10.5C19 5.80558 15.1944 2 10.5 2C5.80558 2 2 5.80558 2 10.5C2 15.1944 5.80558 19 10.5 19Z" stroke="#545F71" stroke-width="1.5"/>
<path d="M10.5 5.81055V10.5002L12.8448 12.845" stroke="#545F71" stroke-width="1.5" stroke-linecap="round"/>
</symbol>
<symbol id="close" viewBox="0 0 15 15">
<path d="M13.65 0.65L0.650002 13.65" stroke="#545F71" stroke-width="1.3" stroke-linecap="round" stroke-linejoin="round"/>
<path d="M0.650002 0.65L13.65 13.65" stroke="#545F71" stroke-width="1.3" stroke-linecap="round" stroke-linejoin="round"/>
</symbol>
<symbol id="close2" viewBox="0 0 20 20">
<path d="M1.5 10C1.5 5.30559 5.30559 1.5 10 1.5C14.6945 1.5 18.5 5.30559 18.5 10C18.5 14.6945 14.6945 18.5 10 18.5C5.30559 18.5 1.5 14.6945 1.5 10Z" stroke="white" stroke-width="1.5" stroke-linecap="round" stroke-linejoin="round"/>
<path d="M7.36194 7.3623L12.6378 12.6382" stroke="white" stroke-width="1.5" stroke-linecap="round" stroke-linejoin="round"/>
<path d="M12.6378 7.3623L7.36194 12.6382" stroke="white" stroke-width="1.5" stroke-linecap="round" stroke-linejoin="round"/>
</symbol>
<symbol id="close3" viewBox="0 0 19 19">
<path d="M0.75 9.25C0.75 4.55559 4.55559 0.75 9.25 0.75C13.9445 0.75 17.75 4.55559 17.75 9.25C17.75 13.9445 13.9445 17.75 9.25 17.75C4.55559 17.75 0.75 13.9445 0.75 9.25Z" stroke="#FF4E45" stroke-width="1.5" stroke-linecap="round" stroke-linejoin="round"/>
<path d="M6.61194 6.6123L11.8878 11.8882" stroke="#FF4E45" stroke-width="1.5" stroke-linecap="round" stroke-linejoin="round"/>
<path d="M11.8878 6.6123L6.61194 11.8882" stroke="#FF4E45" stroke-width="1.5" stroke-linecap="round" stroke-linejoin="round"/>
</symbol>
<symbol id="login" viewBox="0 0 19 19">
<path d="M6.61194 5.43945L10.7154 9.2498L6.61194 13.0601" stroke="#545F71" stroke-width="1.5" stroke-linecap="round" stroke-linejoin="round"/>
<path d="M6.61194 0.75H15.405C16.7001 0.75 17.7499 1.79981 17.7499 3.09483V15.4052C17.7499 16.7002 16.7001 17.75 15.405 17.75H6.61194" stroke="#545F71" stroke-width="1.5" stroke-linecap="round" stroke-linejoin="round"/>
<path d="M10.4224 9.25H0.75" stroke="#545F71" stroke-width="1.5" stroke-linecap="round" stroke-linejoin="round"/>
</symbol>
<symbol id="logo1" viewBox="0 0 244 53">
<path d="M90.6293 25.357L97.5388 13.9567H103.519V39.0828H98.0583V22.5069H97.7235L91.9656 32.0712H89.0679L83.3099 22.5069H82.9751V39.0828H77.552V13.9567H83.6447L90.6264 25.357H90.6293Z" fill="black"/>
<path d="M127.959 19.0186H114.847V23.7425H126.548V28.6558H114.847V34.0179H128.591V39.0799H109.352V13.9567H127.962V19.0186H127.959Z" fill="black"/>
<path d="M148.609 14.6298C149.836 15.0437 150.875 15.6789 151.767 16.4308C152.621 17.2555 153.291 18.1939 153.773 19.2809C154.255 20.4058 154.48 21.6443 154.48 23.0314C154.48 24.4944 154.22 25.7679 153.701 26.9306C153.144 28.0555 152.437 29.0317 151.473 29.7807C150.581 30.6054 149.467 31.2057 148.205 31.5817C146.941 32.0304 145.567 32.2199 144.119 32.2199H139.068V39.0828H133.497V13.9567H144.566C146.052 13.9567 147.389 14.1811 148.615 14.6328L148.609 14.6298ZM144.116 27.2308C145.602 27.2308 146.754 26.8548 147.608 26.1059C148.462 25.357 148.872 24.3428 148.872 23.0693C148.872 21.7958 148.5 20.8196 147.758 20.1056C146.979 19.3566 145.865 18.9807 144.341 18.9807H139.068V27.2308H144.119H144.116Z" fill="black"/>
<path d="M164.656 30.6812L176.692 13.9538H181.595V39.0799H176.06V23.2908L164.619 39.0799H159.158V13.9567H164.656V30.6841V30.6812Z" fill="black"/>
<path d="M210.717 34.0208H214.319V35.5595L213.837 44.3341H208.824L208.602 39.0828H191.775L191.478 44.3341H186.427L186.13 35.5945V34.0558H187.169C187.688 34.0558 188.208 33.8693 188.73 33.4934C189.25 33.1174 189.697 32.5171 190.029 31.7303C190.699 30.2295 191.181 28.2799 191.478 25.9165C191.775 23.5531 191.922 20.9274 191.922 18.0394V13.9508H210.717V34.015V34.0208ZM196.751 28.0963C196.341 30.6083 195.747 32.5958 195.042 34.0208H205.144V18.9807H197.418C197.38 22.5448 197.158 25.5813 196.748 28.0934L196.751 28.0963Z" fill="black"/>
<path d="M243.997 39.0828H237.832L235.939 34.0937H225.28L223.424 39.0828H217.369L227.583 13.9188H233.711L244 39.0828H243.997ZM234.118 29.1454L230.813 19.581H230.441L227.098 29.1454H234.118Z" fill="black"/>
<path d="M62.8148 17.3256L46.9408 1.29171C45.3217 -0.343148 42.6635 -0.343148 41.0501 1.29171L17.7269 24.8383L27.6121 10.824L27.6294 9.02596L21.9292 3.19176C20.3014 1.57439 17.6403 1.57439 16.0125 3.19176L1.22085 18.0803C-0.406951 19.6977 -0.406951 22.37 1.22085 24.0136L28.7088 51.7567C30.328 53.4032 32.9775 53.4032 34.5966 51.7567L62.8119 23.2763C64.4282 21.6473 64.4282 18.9604 62.8119 17.3285L62.8148 17.3256Z" fill="#5DACE0"/>
<path opacity="0.3" d="M62.8148 17.3256L46.9408 1.29171C45.3217 -0.343148 42.6635 -0.343148 41.0501 1.29171L17.7269 24.8383L27.6121 10.824L27.6294 9.02596L21.9292 3.19176C20.3014 1.57439 17.6403 1.57439 16.0125 3.19176L1.22085 18.0803C-0.406951 19.6977 -0.406951 22.37 1.22085 24.0136L28.7088 51.7567C30.328 53.4032 32.9775 53.4032 34.5966 51.7567L62.8119 23.2763C64.4282 21.6473 64.4282 18.9604 62.8119 17.3285L62.8148 17.3256Z" fill="url(#paint0_linear_2737_10545)" style="mix-blend-mode:multiply"/>
<path opacity="0.3" d="M63.28 17.3489L47.4032 1.30338C45.7811 -0.325653 43.123 -0.325653 41.5038 1.30338L18.1777 24.8558L28.0311 10.8794L28.1004 9.10174L22.38 3.20925C20.7522 1.58897 18.0882 1.58897 16.4604 3.20925L1.68895 18.0833C0.0467162 19.7181 0.0467162 22.3992 1.68895 24.0311L29.1596 51.7741C30.7903 53.409 33.4456 53.409 35.0705 51.7741L63.2829 23.2938C64.8992 21.6473 64.8992 18.9867 63.2829 17.3489H63.28Z" fill="url(#paint1_linear_2737_10545)"/>
<g style="mix-blend-mode:screen">
<path opacity="0.4" d="M41.0507 3.14805C42.6641 1.51611 45.3222 1.51611 46.9414 3.14805L62.8154 19.1819C63.3869 19.7589 63.7303 20.4496 63.9064 21.1927C64.221 19.8318 63.8746 18.3222 62.8154 17.2585L46.9414 1.23051C45.3222 -0.410172 42.6641 -0.410172 41.0507 1.23051L17.7275 24.7742L41.0507 3.14805Z" fill="url(#paint2_linear_2737_10545)"/>
<path opacity="0.4" d="M16.0124 5.05976C17.6402 3.43073 20.3013 3.41907 21.9291 5.05976L27.5658 10.7978L27.6293 9.02597L21.9291 3.1364C20.3013 1.49571 17.6402 1.49571 16.0124 3.1364L1.22074 18.0133C0.16151 19.0683 -0.199263 20.5632 0.118217 21.9358C0.294274 21.2073 0.65216 20.5049 1.22074 19.9338L16.0124 5.05976Z" fill="url(#paint3_linear_2737_10545)"/>
</g>

</symbol>
<symbol id="logo2" viewBox="0 0 136 46">
<path d="M50.5145 14.1614L54.3657 7.79443H57.6989V21.827H54.6553V12.5696H54.4687L51.2594 17.9112H49.6442L46.4349 12.5696H46.2483V21.827H43.2256V7.79443H46.6215L50.5129 14.1614H50.5145Z" fill="black"/>
<path d="M71.3214 10.6215H64.0131V13.2597H70.5347V16.0037H64.0131V18.9984H71.6737V21.8254H60.9502V7.79443H71.323V10.6215H71.3214Z" fill="black"/>
<path d="M82.8313 8.17039C83.515 8.4015 84.0941 8.75631 84.5912 9.17621C85.0674 9.6368 85.4406 10.1609 85.7092 10.7679C85.9779 11.3962 86.1033 12.0879 86.1033 12.8626C86.1033 13.6796 85.9586 14.3908 85.669 15.0402C85.3585 15.6685 84.9644 16.2137 84.4271 16.632C83.93 17.0925 83.3091 17.4278 82.6061 17.6378C81.9015 17.8884 81.1357 17.9942 80.3282 17.9942H77.513V21.827H74.4082V7.79443H80.5775C81.406 7.79443 82.1508 7.91975 82.8345 8.17202L82.8313 8.17039ZM80.3266 15.2079C81.155 15.2079 81.7969 14.9979 82.2731 14.5796C82.7492 14.1614 82.9777 13.595 82.9777 12.8837C82.9777 12.1725 82.7702 11.6273 82.3567 11.2285C81.9224 10.8103 81.3014 10.6003 80.452 10.6003H77.513V15.2079H80.3282H80.3266Z" fill="black"/>
<path d="M91.7755 17.135L98.4837 7.79297H101.217V21.8256H98.1314V13.0076L91.7546 21.8256H88.7109V7.7946H91.7755V17.1367V17.135Z" fill="black"/>
<path d="M117.449 19.0003H119.456V19.8597L119.188 24.7602H116.393L116.269 21.8274H106.891L106.725 24.7602H103.91L103.744 19.8792V19.0199H104.323C104.613 19.0199 104.902 18.9157 105.194 18.7058C105.483 18.4958 105.732 18.1605 105.917 17.7211C106.291 16.8829 106.559 15.7941 106.725 14.4742C106.891 13.1542 106.973 11.6878 106.973 10.0749V7.7915H117.449V18.9971V19.0003ZM109.664 15.6916C109.436 17.0945 109.104 18.2045 108.712 19.0003H114.342V10.6006H110.036C110.015 12.5911 109.891 14.287 109.662 15.6899L109.664 15.6916Z" fill="black"/>
<path d="M135.998 21.8272H132.562L131.507 19.0409H125.566L124.531 21.8272H121.156L126.849 7.77344H130.265L136 21.8272H135.998ZM130.491 16.2773L128.65 10.9357H128.442L126.579 16.2773H130.491Z" fill="black"/>
<path d="M35.0114 9.67611L26.1637 0.721407C25.2612 -0.191641 23.7796 -0.191641 22.8803 0.721407L9.88055 13.8719L15.3903 6.04508L15.4 5.04089L12.2228 1.78256C11.3155 0.879278 9.83229 0.879278 8.92499 1.78256L0.680474 10.0976C-0.226825 11.0009 -0.226825 12.4934 0.680474 13.4113L16.0016 28.9054C16.9041 29.825 18.3808 29.825 19.2833 28.9054L35.0098 12.9995C35.9107 12.0897 35.9107 10.5892 35.0098 9.67774L35.0114 9.67611Z" fill="#5DACE0"/>
<path opacity="0.3" d="M35.0114 9.67611L26.1637 0.721407C25.2612 -0.191641 23.7796 -0.191641 22.8803 0.721407L9.88055 13.8719L15.3903 6.04508L15.4 5.04089L12.2228 1.78256C11.3155 0.879278 9.83229 0.879278 8.92499 1.78256L0.680474 10.0976C-0.226825 11.0009 -0.226825 12.4934 0.680474 13.4113L16.0016 28.9054C16.9041 29.825 18.3808 29.825 19.2833 28.9054L35.0098 12.9995C35.9107 12.0897 35.9107 10.5892 35.0098 9.67774L35.0114 9.67611Z" fill="url(#paint0_linear_2737_4392)" style="mix-blend-mode:multiply"/>
<path opacity="0.3" d="M35.2707 9.68897L26.4214 0.727755C25.5173 -0.182038 24.0357 -0.182038 23.1332 0.727755L10.1318 13.8815L15.6239 6.07584L15.6625 5.08304L12.4741 1.79216C11.5668 0.887253 10.0819 0.887253 9.17464 1.79216L0.941389 10.0991C0.0260472 11.0122 0.0260472 12.5095 0.941389 13.4209L16.2529 28.915C17.1618 29.8281 18.6418 29.8281 19.5474 28.915L35.2724 13.0091C36.1732 12.0896 36.1732 10.6036 35.2724 9.68897H35.2707Z" fill="url(#paint1_linear_2737_4392)"/>
<g style="mix-blend-mode:screen">
<path opacity="0.4" d="M22.8807 1.75815C23.7799 0.846726 25.2615 0.846726 26.164 1.75815L35.0118 10.7128C35.3303 11.0351 35.5217 11.4208 35.6198 11.8358C35.7952 11.0758 35.6022 10.2327 35.0118 9.63867L26.164 0.687227C25.2615 -0.229076 23.7799 -0.229076 22.8807 0.687227L9.88087 13.8361L22.8807 1.75815Z" fill="url(#paint2_linear_2737_4392)"/>
<path opacity="0.4" d="M8.92493 2.82585C9.83223 1.91606 11.3154 1.90955 12.2227 2.82585L15.3645 6.03047L15.3999 5.04093L12.2227 1.75168C11.3154 0.835377 9.83223 0.835377 8.92493 1.75168L0.680419 10.0603C0.0900308 10.6494 -0.111055 11.4843 0.0659006 12.2509C0.16403 11.844 0.363507 11.4518 0.680419 11.1328L8.92493 2.82585Z" fill="url(#paint3_linear_2737_4392)"/>
</g>
<path d="M43.9779 42.6006V41.7703L47.0961 38.3569C47.4621 37.9571 47.7634 37.6096 48.0002 37.3144C48.237 37.0161 48.4123 36.7362 48.5261 36.4749C48.6429 36.2104 48.7014 35.9336 48.7014 35.6446C48.7014 35.3124 48.6214 35.0249 48.4615 34.782C48.3047 34.539 48.0894 34.3515 47.8157 34.2192C47.542 34.087 47.2345 34.0209 46.8932 34.0209C46.5303 34.0209 46.2135 34.0962 45.9429 34.2469C45.6754 34.3945 45.4678 34.6021 45.3202 34.8696C45.1757 35.1372 45.1034 35.4508 45.1034 35.8106H44.0148C44.0148 35.2571 44.1424 34.7712 44.3977 34.353C44.6529 33.9348 45.0004 33.6088 45.4401 33.3751C45.883 33.1414 46.3796 33.0245 46.9301 33.0245C47.4836 33.0245 47.9741 33.1414 48.4015 33.3751C48.829 33.6088 49.1642 33.924 49.4071 34.3207C49.65 34.7174 49.7715 35.1587 49.7715 35.6446C49.7715 35.9921 49.7085 36.3319 49.5824 36.664C49.4594 36.993 49.2441 37.3605 48.9366 37.7664C48.6322 38.1693 48.2093 38.6613 47.6681 39.2425L45.5462 41.512V41.5858H49.9376V42.6006H43.9779ZM54.7948 42.7297C54.2536 42.7297 53.7662 42.6221 53.3326 42.4069C52.899 42.1916 52.5515 41.8964 52.2901 41.5212C52.0287 41.146 51.8857 40.7186 51.8611 40.2389H52.9681C53.0112 40.6663 53.2049 41.02 53.5494 41.2998C53.8968 41.5766 54.312 41.7149 54.7948 41.7149C55.1823 41.7149 55.5267 41.6242 55.828 41.4428C56.1325 41.2614 56.3708 41.0123 56.543 40.6955C56.7183 40.3757 56.806 40.0144 56.806 39.6115C56.806 39.1995 56.7152 38.832 56.5338 38.5091C56.3554 38.1831 56.1094 37.9263 55.7958 37.7388C55.4821 37.5512 55.1238 37.4558 54.721 37.4528C54.4319 37.4497 54.1352 37.4943 53.8307 37.5865C53.5263 37.6757 53.2757 37.791 53.0789 37.9325L52.0087 37.8033L52.5807 33.1537H57.4886V34.1685H53.5401L53.208 36.9546H53.2634C53.4571 36.8008 53.7 36.6732 53.9922 36.5717C54.2843 36.4702 54.5888 36.4195 54.9055 36.4195C55.4836 36.4195 55.9987 36.5579 56.4508 36.8347C56.9059 37.1083 57.2626 37.4835 57.5209 37.9602C57.7823 38.4368 57.913 38.9811 57.913 39.5931C57.913 40.1958 57.7777 40.734 57.5071 41.2075C57.2395 41.678 56.8705 42.0501 56.4 42.3238C55.9295 42.5944 55.3945 42.7297 54.7948 42.7297ZM62.7898 42.6006V41.5858H63.0481C63.2603 41.5858 63.4372 41.5443 63.5786 41.4612C63.7201 41.3751 63.8339 41.226 63.92 41.0138C64.0091 40.7985 64.0768 40.5002 64.1229 40.1189C64.1721 39.7345 64.2075 39.2456 64.229 38.6521L64.3582 35.5154H69.0816V42.6006H67.993V36.5302H65.3914L65.2807 39.058C65.2561 39.6392 65.2038 40.1512 65.1239 40.594C65.047 41.0338 64.9286 41.4028 64.7687 41.7011C64.6119 41.9994 64.4028 42.2239 64.1414 42.3746C63.88 42.5252 63.5525 42.6006 63.1589 42.6006H62.7898ZM74.0496 42.7482C73.3669 42.7482 72.778 42.5975 72.2829 42.2961C71.7908 41.9917 71.4111 41.5673 71.1435 41.023C70.8791 40.4756 70.7468 39.8391 70.7468 39.1133C70.7468 38.3876 70.8791 37.748 71.1435 37.1944C71.4111 36.6378 71.7832 36.2042 72.2598 35.8937C72.7395 35.58 73.2992 35.4232 73.9388 35.4232C74.3079 35.4232 74.6723 35.4847 75.0321 35.6077C75.3919 35.7307 75.7194 35.9306 76.0146 36.2073C76.3098 36.481 76.545 36.8439 76.7203 37.2959C76.8956 37.748 76.9833 38.3046 76.9833 38.9657V39.427H71.5218V38.486H75.8762C75.8762 38.0862 75.7962 37.7295 75.6363 37.4159C75.4795 37.1022 75.255 36.8546 74.9629 36.6732C74.6738 36.4918 74.3325 36.4011 73.9388 36.4011C73.5052 36.4011 73.1301 36.5087 72.8133 36.7239C72.4997 36.9361 72.2583 37.2129 72.0891 37.5542C71.92 37.8956 71.8354 38.2615 71.8354 38.6521V39.2794C71.8354 39.8145 71.9277 40.2681 72.1122 40.6402C72.2998 41.0092 72.5596 41.2906 72.8918 41.4843C73.2239 41.675 73.6098 41.7703 74.0496 41.7703C74.3355 41.7703 74.5939 41.7303 74.8245 41.6504C75.0582 41.5673 75.2596 41.4443 75.4288 41.2813C75.5979 41.1153 75.7286 40.9092 75.8208 40.6632L76.8726 40.9584C76.7618 41.3152 76.5758 41.6288 76.3144 41.8994C76.053 42.167 75.7301 42.3761 75.3457 42.5268C74.9613 42.6744 74.5293 42.7482 74.0496 42.7482ZM77.9796 36.5302V35.5154H83.7363V36.5302H81.4115V42.6006H80.3229V36.5302H77.9796ZM88.9776 42.6006V35.5154H91.8744C92.637 35.5154 93.2428 35.6876 93.6918 36.032C94.1408 36.3765 94.3652 36.8316 94.3652 37.3974C94.3652 37.8279 94.2376 38.1616 93.9824 38.3984C93.7271 38.6321 93.3996 38.7905 92.9999 38.8735C93.2613 38.9104 93.515 39.0026 93.761 39.1503C94.0101 39.2979 94.2161 39.5008 94.3791 39.7591C94.5421 40.0144 94.6236 40.328 94.6236 40.7001C94.6236 41.063 94.5313 41.3874 94.3468 41.6734C94.1623 41.9594 93.8978 42.1854 93.5534 42.3515C93.209 42.5176 92.7969 42.6006 92.3172 42.6006H88.9776ZM90.0108 41.6042H92.3172C92.6923 41.6042 92.986 41.5151 93.1982 41.3367C93.4104 41.1583 93.5165 40.9154 93.5165 40.6079C93.5165 40.2419 93.4104 39.9544 93.1982 39.7453C92.986 39.5331 92.6923 39.427 92.3172 39.427H90.0108V41.6042ZM90.0108 38.486H91.8744C92.1665 38.486 92.4171 38.446 92.6262 38.3661C92.8353 38.2831 92.9953 38.1662 93.106 38.0155C93.2197 37.8618 93.2766 37.6803 93.2766 37.4712C93.2766 37.1729 93.1521 36.9392 92.903 36.7701C92.6539 36.5979 92.311 36.5118 91.8744 36.5118H90.0108V38.486ZM100.072 42.6006V33.1537H103.375C104.033 33.1537 104.576 33.2675 105.003 33.495C105.431 33.7195 105.749 34.0224 105.958 34.4037C106.167 34.782 106.272 35.2017 106.272 35.663C106.272 36.0689 106.2 36.4041 106.055 36.6686C105.914 36.9331 105.726 37.1422 105.492 37.2959C105.262 37.4497 105.011 37.5635 104.74 37.6373V37.7295C105.03 37.748 105.32 37.8495 105.612 38.034C105.904 38.2185 106.149 38.4829 106.346 38.8274C106.543 39.1718 106.641 39.5931 106.641 40.0913C106.641 40.5648 106.533 40.9907 106.318 41.369C106.103 41.7472 105.763 42.0471 105.299 42.2685C104.834 42.4899 104.23 42.6006 103.486 42.6006H100.072ZM101.216 41.5858H103.486C104.233 41.5858 104.764 41.4412 105.077 41.1522C105.394 40.86 105.552 40.5064 105.552 40.0913C105.552 39.7714 105.471 39.4762 105.308 39.2056C105.145 38.9319 104.913 38.7136 104.611 38.5506C104.31 38.3845 103.953 38.3015 103.541 38.3015H101.216V41.5858ZM101.216 37.3052H103.338C103.683 37.3052 103.993 37.2375 104.27 37.1022C104.55 36.9669 104.771 36.7762 104.934 36.5302C105.1 36.2842 105.183 35.9951 105.183 35.663C105.183 35.2479 105.039 34.8958 104.75 34.6067C104.461 34.3146 104.002 34.1685 103.375 34.1685H101.216V37.3052ZM110.458 42.7666C110.009 42.7666 109.602 42.6821 109.236 42.5129C108.87 42.3407 108.579 42.0932 108.364 41.7703C108.149 41.4443 108.041 41.0507 108.041 40.5894C108.041 40.1835 108.121 39.8545 108.281 39.6023C108.441 39.3471 108.654 39.1472 108.922 39.0026C109.189 38.8581 109.485 38.7505 109.808 38.6798C110.134 38.6059 110.461 38.5475 110.79 38.5045C111.221 38.4491 111.57 38.4076 111.837 38.3799C112.108 38.3492 112.305 38.2984 112.428 38.2277C112.554 38.157 112.617 38.034 112.617 37.8587V37.8218C112.617 37.3667 112.492 37.013 112.243 36.7608C111.997 36.5087 111.623 36.3826 111.122 36.3826C110.602 36.3826 110.195 36.4964 109.9 36.7239C109.605 36.9515 109.397 37.1944 109.277 37.4528L108.244 37.0837C108.428 36.6532 108.674 36.318 108.982 36.0782C109.292 35.8352 109.631 35.6661 109.997 35.5708C110.366 35.4724 110.729 35.4232 111.085 35.4232C111.313 35.4232 111.574 35.4508 111.869 35.5062C112.168 35.5585 112.455 35.6676 112.732 35.8337C113.012 35.9997 113.244 36.2504 113.429 36.5856C113.613 36.9208 113.705 37.3697 113.705 37.9325V42.6006H112.617V41.6411H112.561C112.488 41.7949 112.365 41.9594 112.192 42.1347C112.02 42.31 111.791 42.4591 111.505 42.5821C111.219 42.7051 110.87 42.7666 110.458 42.7666ZM110.624 41.7887C111.055 41.7887 111.417 41.7042 111.713 41.535C112.011 41.3659 112.235 41.1476 112.386 40.88C112.54 40.6125 112.617 40.3311 112.617 40.0359V39.0395C112.571 39.0949 112.469 39.1456 112.312 39.1918C112.159 39.2348 111.98 39.2733 111.777 39.3071C111.577 39.3378 111.382 39.3655 111.191 39.3901C111.004 39.4116 110.852 39.4301 110.735 39.4455C110.452 39.4824 110.187 39.5423 109.941 39.6254C109.698 39.7053 109.502 39.8268 109.351 39.9898C109.203 40.1497 109.129 40.368 109.129 40.6448C109.129 41.023 109.269 41.309 109.549 41.5028C109.832 41.6934 110.19 41.7887 110.624 41.7887ZM119.567 41.1245L122.039 35.5154H123.073L120.01 42.6006H119.124L116.117 35.5154H117.131L119.567 41.1245ZM116.781 35.5154V42.6006H115.692V35.5154H116.781ZM122.353 42.6006V35.5154H123.442V42.6006H122.353ZM126.523 40.9954L129.936 35.5154H131.191V42.6006H130.102V37.1206L126.708 42.6006H125.434V35.5154H126.523V40.9954ZM134.624 33.1537L134.532 39.9436H133.462L133.369 33.1537H134.624ZM133.997 42.6744C133.769 42.6744 133.574 42.5929 133.411 42.4299C133.248 42.2669 133.167 42.0717 133.167 41.8441C133.167 41.6165 133.248 41.4213 133.411 41.2583C133.574 41.0953 133.769 41.0138 133.997 41.0138C134.224 41.0138 134.42 41.0953 134.583 41.2583C134.746 41.4213 134.827 41.6165 134.827 41.8441C134.827 41.9948 134.789 42.1332 134.712 42.2592C134.638 42.3853 134.538 42.4868 134.412 42.5637C134.289 42.6375 134.151 42.6744 133.997 42.6744Z" fill="black"/>

</symbol>
<symbol id="max" viewBox="0 0 20 20">
<path fill-rule="evenodd" clip-rule="evenodd" d="M10.1934 18.9486C8.4269 18.9486 7.60599 18.6896 6.17907 17.6536C5.27649 18.8191 2.41835 19.73 2.29369 18.1716C2.29369 17.0018 2.03581 16.0133 1.74354 14.9342C1.39542 13.6046 1 12.124 1 9.97864C1 4.85477 5.18624 1 10.1461 1C15.1103 1 18.9999 5.0447 18.9999 10.0261C19.0166 14.9305 15.0765 18.9225 10.1934 18.9486ZM10.2664 5.42888C7.85099 5.3037 5.96846 6.98288 5.55156 9.61604C5.20772 11.796 5.81804 14.4507 6.33809 14.5888C6.58737 14.6493 7.21488 14.1399 7.60599 13.7471C8.25273 14.1958 9.00585 14.4653 9.78938 14.5284C12.2922 14.6493 14.4308 12.7356 14.5988 10.2247C14.6966 7.70844 12.7696 5.5772 10.2664 5.4332V5.42888Z" fill="#545F71"/>
</symbol>
<symbol id="minus" viewBox="0 0 17 2">
<path d="M15.75 0.75H0.75" stroke="#107AB0" stroke-width="1.5" stroke-linecap="round" stroke-linejoin="round"/>
</symbol>
<symbol id="paperclip" viewBox="0 0 20 20">
<g clip-path="url(#clip0_2737_8692)">
<path d="M18.5 9.94279L11.3294 16.8706C9.08084 19.0431 5.43507 19.0431 3.18646 16.8706C0.929594 14.6901 0.93909 11.1521 3.20764 8.98306L9.82497 2.61484C11.3635 1.1284 13.8579 1.12839 15.3965 2.61481C16.9407 4.10669 16.9341 6.52744 15.382 8.0116L8.69019 14.4386C7.85965 15.241 6.513 15.241 5.68241 14.4386C4.85182 13.6361 4.85182 12.3351 5.68242 11.5326L11.2239 6.17887" stroke="#545F71" stroke-width="1.5" stroke-linecap="round" stroke-linejoin="round"/>
</g>

</symbol>
<symbol id="phone" viewBox="0 0 20 20">
<path d="M6.57143 2H3.45454C2.65122 2 2 2.65122 2 3.45454C2 11.4878 8.51222 18 16.5454 18C17.3487 18 18 17.3487 18 16.5454V13.4285L14.5715 11.1428L12.7936 12.9206C12.4849 13.2295 12.0234 13.3255 11.6354 13.1251C10.9774 12.7851 9.90963 12.1464 8.85716 11.1428C7.77951 10.1153 7.14812 9.00811 6.83122 8.33821C6.65362 7.9627 6.75644 7.52928 7.05014 7.23557L8.85716 5.42857L6.57143 2Z" stroke="#545F71" stroke-width="1.5" stroke-linecap="round" stroke-linejoin="round"/>
</symbol>
<symbol id="plus" viewBox="0 0 17 17">
<path d="M8.16174 0.661621V15.6616" stroke="#107AB0" stroke-width="1.32353" stroke-linecap="round" stroke-linejoin="round"/>
<path d="M15.6617 8.16162H0.661743" stroke="#107AB0" stroke-width="1.32353" stroke-linecap="round" stroke-linejoin="round"/>
</symbol>
<symbol id="rotate" viewBox="0 0 14 14">
<g clip-path="url(#clip0_2737_4439)">
<path d="M11.2073 2.79252C8.8837 0.468898 5.11639 0.468898 2.79277 2.79252C0.469142 5.11614 0.469142 8.88345 2.79277 11.2071C5.11639 13.5307 8.8837 13.5307 11.2073 11.2071C11.7275 10.6869 12.1312 10.0945 12.4185 9.46196" stroke="#545F71" stroke-width="1.5" stroke-linecap="round" stroke-linejoin="round"/>
<path d="M12.9502 12.9499V10.0775C12.9502 9.62426 12.5828 9.25684 12.1295 9.25684H9.25708" stroke="#545F71" stroke-width="1.5" stroke-linecap="round" stroke-linejoin="round"/>
</g>

</symbol>
<symbol id="search" viewBox="0 0 20 20">
<g clip-path="url(#clip0_599_22720)">
<path d="M18.5 18.5L14.1034 14.1034M1.5 8.82759C1.5 4.78067 4.78067 1.5 8.82759 1.5C12.8745 1.5 16.1552 4.78067 16.1552 8.82759C16.1552 12.8745 12.8745 16.1552 8.82759 16.1552C4.78067 16.1552 1.5 12.8745 1.5 8.82759Z" stroke="#545F71" stroke-width="1.59375" stroke-linecap="round" stroke-linejoin="round"/>
</g>

</symbol>
<symbol id="settings" viewBox="0 0 19 19">
<path d="M1.77137 12.7235L3.06196 12.9256C4.01468 13.0748 4.69507 13.9474 4.6249 14.9305L4.52981 16.2629C4.50212 16.6511 4.70891 17.0165 5.05141 17.1856L6.00597 17.6559C6.34846 17.8249 6.75744 17.7616 7.03719 17.4982L7.99634 16.5917C8.70354 15.923 9.7947 15.923 10.5027 16.5917L11.4619 17.4982C11.7416 17.7627 12.1497 17.8249 12.4931 17.6559L13.4495 17.1847C13.7911 17.0165 13.997 16.652 13.9693 16.2649L13.8741 14.9305C13.804 13.9474 14.4844 13.0748 15.4371 12.9256L16.7277 12.7235C17.1034 12.665 17.4062 12.3769 17.4911 11.9973L17.7266 10.9416C17.8116 10.5619 17.661 10.1681 17.3472 9.949L16.2698 9.19443C15.4749 8.6373 15.2321 7.54942 15.7122 6.69474L16.363 5.53696C16.5523 5.19982 16.521 4.77769 16.2837 4.47361L15.6236 3.62652C15.3863 3.32243 14.9912 3.19684 14.6275 3.31111L13.3794 3.70207C12.4571 3.99104 11.474 3.50658 11.1194 2.58961L10.6412 1.34967C10.5008 0.987041 10.1584 0.749065 9.77712 0.750003L8.71913 0.75284C8.33786 0.753778 7.99634 0.993654 7.85787 1.35723L7.39161 2.583C7.04082 3.50564 6.05305 3.99387 5.12803 3.70301L3.82821 3.29506C3.46355 3.17984 3.06658 3.30638 2.82933 3.61236L2.17387 4.46039C1.93662 4.7673 1.908 5.19038 2.10095 5.52751L2.76655 6.68813C3.25676 7.54367 3.01673 8.64199 2.21726 9.20205L1.15284 9.94806C0.83896 10.1681 0.688493 10.5619 0.773423 10.9406L1.00883 11.9964C1.09284 12.3769 1.39563 12.665 1.77137 12.7235Z" stroke="#545F71" stroke-width="1.5" stroke-linecap="round" stroke-linejoin="round"/>
<path d="M11.1153 7.38433C12.1453 8.41441 12.1453 10.0851 11.1153 11.1152C10.0852 12.1451 8.41453 12.1451 7.38445 11.1152C6.35444 10.0851 6.35444 8.41441 7.38445 7.38433C8.41453 6.35431 10.0852 6.35431 11.1153 7.38433Z" stroke="#545F71" stroke-width="1.5" stroke-linecap="round" stroke-linejoin="round"/>
</symbol>
<symbol id="telegram" viewBox="0 0 20 20">
<path d="M2.10379 9.48163C2.10379 9.48163 10.0648 6.21445 12.8258 5.06399C13.8842 4.60385 17.4735 3.13126 17.4735 3.13126C17.4735 3.13126 19.1301 2.48706 18.9921 4.05161C18.946 4.69588 18.5779 6.95068 18.2098 9.3896C17.6576 12.8409 17.0593 16.6143 17.0593 16.6143C17.0593 16.6143 16.9673 17.6727 16.185 17.8568C15.4028 18.0408 14.1142 17.2126 13.8842 17.0284C13.7001 16.8904 10.4329 14.8196 9.23644 13.8072C8.91431 13.5311 8.54619 12.979 9.28242 12.3347C10.9391 10.8161 12.9178 8.92946 14.1142 7.73302C14.6665 7.18078 15.2186 5.89231 12.9178 7.45687C9.6506 9.71173 6.4294 11.8285 6.4294 11.8285C6.4294 11.8285 5.69311 12.2887 4.31261 11.8745C2.93205 11.4604 1.32145 10.9082 1.32145 10.9082C1.32145 10.9082 0.217107 10.2179 2.10379 9.48163Z" fill="#545F71"/>
</symbol>
<symbol id="users" viewBox="0 0 20 20">
<path d="M1.88598 18.7502H11.1176C11.8184 18.7502 12.3698 18.1688 12.2302 17.4821C11.8447 15.5861 10.5856 12.2329 6.50183 12.2329C2.41807 12.2329 1.15899 15.5861 0.773468 17.4821C0.633825 18.1688 1.18522 18.7502 1.88598 18.7502Z" stroke="#545F71" stroke-width="1.5" stroke-linecap="round" stroke-linejoin="round"/>
<path d="M14.2605 12.2329C16.8411 12.2329 17.898 14.8993 18.3246 16.821C18.555 17.8588 17.7156 18.7502 16.6525 18.7502H15.5019" stroke="#545F71" stroke-width="1.5" stroke-linecap="round" stroke-linejoin="round"/>
<path d="M6.50181 7.57759C8.38719 7.57759 9.9156 6.04918 9.9156 4.16379C9.9156 2.27841 8.38719 0.75 6.50181 0.75C4.61642 0.75 3.08801 2.27841 3.08801 4.16379C3.08801 6.04918 4.61642 7.57759 6.50181 7.57759Z" stroke="#545F71" stroke-width="1.5" stroke-linecap="round" stroke-linejoin="round"/>
<path d="M13.0192 7.57759C14.9046 7.57759 16.1226 6.04917 16.1226 4.16379C16.1226 2.27841 14.9046 0.75 13.0192 0.75" stroke="#545F71" stroke-width="1.5" stroke-linecap="round" stroke-linejoin="round"/>
</symbol>
<symbol id="warning" viewBox="0 0 19 19">
<path d="M1.00226 14.326L7.16147 2.04153C8.02502 0.319136 10.4836 0.319593 11.3465 2.04229L17.5001 14.3268C18.2796 15.8831 17.1481 17.7156 15.4074 17.7156H3.09458C1.35351 17.7156 0.221916 15.8824 1.00226 14.326Z" stroke="white" stroke-width="1.5" stroke-linecap="round" stroke-linejoin="round"/>
<path d="M9.25012 6.89062V9.23119" stroke="white" stroke-width="2" stroke-linecap="round" stroke-linejoin="round"/>
<path d="M9.25024 15.0828C9.89657 15.0828 10.4205 14.5588 10.4205 13.9125C10.4205 13.2661 9.89657 12.7422 9.25024 12.7422C8.60391 12.7422 8.07996 13.2661 8.07996 13.9125C8.07996 14.5588 8.60391 15.0828 9.25024 15.0828Z" fill="white"/>
</symbol>
</svg>