<svg width="136" height="46" viewBox="0 0 136 46" fill="none" xmlns="http://www.w3.org/2000/svg">
<path d="M50.5145 14.1616L54.3657 7.79468H57.6989V21.8273H54.6553V12.5699H54.4687L51.2594 17.9114H49.6442L46.4349 12.5699H46.2483V21.8273H43.2256V7.79468H46.6215L50.5129 14.1616H50.5145Z" fill="black"/>
<path d="M71.3214 10.6217H64.0131V13.2599H70.5347V16.004H64.0131V18.9986H71.6737V21.8257H60.9502V7.79468H71.323V10.6217H71.3214Z" fill="black"/>
<path d="M82.8313 8.17064C83.515 8.40175 84.0941 8.75655 84.5912 9.17646C85.0674 9.63705 85.4406 10.1611 85.7092 10.7682C85.9779 11.3964 86.1033 12.0881 86.1033 12.8628C86.1033 13.6798 85.9586 14.3911 85.669 15.0405C85.3585 15.6687 84.9644 16.2139 84.4271 16.6322C83.93 17.0928 83.3091 17.4281 82.6061 17.638C81.9015 17.8887 81.1357 17.9944 80.3282 17.9944H77.513V21.8273H74.4082V7.79468H80.5775C81.406 7.79468 82.1508 7.92 82.8345 8.17227L82.8313 8.17064ZM80.3266 15.2081C81.155 15.2081 81.7969 14.9982 82.2731 14.5799C82.7492 14.1616 82.9777 13.5952 82.9777 12.884C82.9777 12.1727 82.7702 11.6275 82.3567 11.2288C81.9224 10.8105 81.3014 10.6005 80.452 10.6005H77.513V15.2081H80.3282H80.3266Z" fill="black"/>
<path d="M91.7755 17.1351L98.4837 7.79309H101.217V21.8257H98.1314V13.0077L91.7546 21.8257H88.7109V7.79472H91.7755V17.1368V17.1351Z" fill="black"/>
<path d="M117.449 19.0002H119.456V19.8596L119.188 24.7601H116.393L116.269 21.8273H106.891L106.725 24.7601H103.91L103.744 19.8791V19.0198H104.323C104.613 19.0198 104.902 18.9156 105.194 18.7056C105.483 18.4957 105.732 18.1604 105.917 17.721C106.291 16.8828 106.559 15.794 106.725 14.474C106.891 13.1541 106.973 11.6877 106.973 10.0748V7.79138H117.449V18.997V19.0002ZM109.664 15.6914C109.436 17.0944 109.104 18.2044 108.712 19.0002H114.342V10.6005H110.036C110.015 12.591 109.891 14.2869 109.662 15.6898L109.664 15.6914Z" fill="black"/>
<path d="M135.998 21.8273H132.562L131.507 19.041H125.566L124.531 21.8273H121.156L126.849 7.77356H130.265L136 21.8273H135.998ZM130.491 16.2774L128.65 10.9359H128.442L126.579 16.2774H130.491Z" fill="black"/>
<path d="M35.0114 9.67611L26.1637 0.721407C25.2612 -0.191641 23.7796 -0.191641 22.8803 0.721407L9.88055 13.8719L15.3903 6.04508L15.4 5.04089L12.2228 1.78256C11.3155 0.879278 9.83229 0.879278 8.92499 1.78256L0.680474 10.0976C-0.226825 11.0009 -0.226825 12.4934 0.680474 13.4113L16.0016 28.9054C16.9041 29.825 18.3808 29.825 19.2833 28.9054L35.0098 12.9995C35.9107 12.0897 35.9107 10.5892 35.0098 9.67774L35.0114 9.67611Z" fill="#5DACE0"/>
<path opacity="0.3" d="M35.0114 9.67611L26.1637 0.721407C25.2612 -0.191641 23.7796 -0.191641 22.8803 0.721407L9.88055 13.8719L15.3903 6.04508L15.4 5.04089L12.2228 1.78256C11.3155 0.879278 9.83229 0.879278 8.92499 1.78256L0.680474 10.0976C-0.226825 11.0009 -0.226825 12.4934 0.680474 13.4113L16.0016 28.9054C16.9041 29.825 18.3808 29.825 19.2833 28.9054L35.0098 12.9995C35.9107 12.0897 35.9107 10.5892 35.0098 9.67774L35.0114 9.67611Z" fill="url(#paint0_linear_687_40642)" style="mix-blend-mode:multiply"/>
<path opacity="0.3" d="M35.2707 9.68909L26.4214 0.727877C25.5173 -0.181916 24.0357 -0.181916 23.1332 0.727877L10.1318 13.8816L15.6239 6.07596L15.6625 5.08316L12.4741 1.79229C11.5668 0.887375 10.0819 0.887375 9.17464 1.79229L0.941389 10.0992C0.0260472 11.0123 0.0260472 12.5096 0.941389 13.421L16.2529 28.9152C17.1618 29.8282 18.6418 29.8282 19.5474 28.9152L35.2724 13.0093C36.1732 12.0897 36.1732 10.6038 35.2724 9.68909H35.2707Z" fill="url(#paint1_linear_687_40642)"/>
<g style="mix-blend-mode:screen">
<path opacity="0.4" d="M22.8807 1.75815C23.7799 0.846726 25.2615 0.846726 26.164 1.75815L35.0118 10.7128C35.3303 11.0351 35.5217 11.4208 35.6198 11.8358C35.7952 11.0758 35.6022 10.2327 35.0118 9.63867L26.164 0.687227C25.2615 -0.229076 23.7799 -0.229076 22.8807 0.687227L9.88087 13.8361L22.8807 1.75815Z" fill="url(#paint2_linear_687_40642)"/>
<path opacity="0.4" d="M8.92493 2.82585C9.83223 1.91606 11.3154 1.90955 12.2227 2.82585L15.3645 6.03047L15.3999 5.04093L12.2227 1.75168C11.3154 0.835377 9.83223 0.835377 8.92493 1.75168L0.680419 10.0603C0.0900308 10.6494 -0.111055 11.4843 0.0659006 12.2509C0.16403 11.844 0.363507 11.4518 0.680419 11.1328L8.92493 2.82585Z" fill="url(#paint3_linear_687_40642)"/>
</g>
<path d="M43.9779 42.6006V41.7703L47.0961 38.3569C47.4621 37.9571 47.7634 37.6096 48.0002 37.3144C48.237 37.0161 48.4123 36.7362 48.5261 36.4749C48.6429 36.2104 48.7014 35.9336 48.7014 35.6446C48.7014 35.3124 48.6214 35.0249 48.4615 34.782C48.3047 34.539 48.0894 34.3515 47.8157 34.2192C47.542 34.087 47.2345 34.0209 46.8932 34.0209C46.5303 34.0209 46.2135 34.0962 45.9429 34.2469C45.6754 34.3945 45.4678 34.6021 45.3202 34.8696C45.1757 35.1372 45.1034 35.4508 45.1034 35.8106H44.0148C44.0148 35.2571 44.1424 34.7712 44.3977 34.353C44.6529 33.9348 45.0004 33.6088 45.4401 33.3751C45.883 33.1414 46.3796 33.0245 46.9301 33.0245C47.4836 33.0245 47.9741 33.1414 48.4015 33.3751C48.829 33.6088 49.1642 33.924 49.4071 34.3207C49.65 34.7174 49.7715 35.1587 49.7715 35.6446C49.7715 35.9921 49.7085 36.3319 49.5824 36.664C49.4594 36.993 49.2441 37.3605 48.9366 37.7664C48.6322 38.1693 48.2093 38.6613 47.6681 39.2425L45.5462 41.512V41.5858H49.9376V42.6006H43.9779ZM54.7948 42.7297C54.2536 42.7297 53.7662 42.6221 53.3326 42.4069C52.899 42.1916 52.5515 41.8964 52.2901 41.5212C52.0287 41.146 51.8857 40.7186 51.8611 40.2389H52.9681C53.0112 40.6663 53.2049 41.02 53.5494 41.2998C53.8968 41.5766 54.312 41.7149 54.7948 41.7149C55.1823 41.7149 55.5267 41.6242 55.828 41.4428C56.1325 41.2614 56.3708 41.0123 56.543 40.6955C56.7183 40.3757 56.806 40.0144 56.806 39.6115C56.806 39.1995 56.7152 38.832 56.5338 38.5091C56.3554 38.1831 56.1094 37.9263 55.7958 37.7388C55.4821 37.5512 55.1238 37.4558 54.721 37.4528C54.4319 37.4497 54.1352 37.4943 53.8307 37.5865C53.5263 37.6757 53.2757 37.791 53.0789 37.9325L52.0087 37.8033L52.5807 33.1537H57.4886V34.1685H53.5401L53.208 36.9546H53.2634C53.4571 36.8008 53.7 36.6732 53.9922 36.5717C54.2843 36.4702 54.5888 36.4195 54.9055 36.4195C55.4836 36.4195 55.9987 36.5579 56.4508 36.8347C56.9059 37.1083 57.2626 37.4835 57.5209 37.9602C57.7823 38.4368 57.913 38.9811 57.913 39.5931C57.913 40.1958 57.7777 40.734 57.5071 41.2075C57.2395 41.678 56.8705 42.0501 56.4 42.3238C55.9295 42.5944 55.3945 42.7297 54.7948 42.7297ZM62.7898 42.6006V41.5858H63.0481C63.2603 41.5858 63.4372 41.5443 63.5786 41.4612C63.7201 41.3751 63.8339 41.226 63.92 41.0138C64.0091 40.7985 64.0768 40.5002 64.1229 40.1189C64.1721 39.7345 64.2075 39.2456 64.229 38.6521L64.3582 35.5154H69.0816V42.6006H67.993V36.5302H65.3914L65.2807 39.058C65.2561 39.6392 65.2038 40.1512 65.1239 40.594C65.047 41.0338 64.9286 41.4028 64.7687 41.7011C64.6119 41.9994 64.4028 42.2239 64.1414 42.3746C63.88 42.5252 63.5525 42.6006 63.1589 42.6006H62.7898ZM74.0496 42.7482C73.3669 42.7482 72.778 42.5975 72.2829 42.2961C71.7908 41.9917 71.4111 41.5673 71.1435 41.023C70.8791 40.4756 70.7468 39.8391 70.7468 39.1133C70.7468 38.3876 70.8791 37.748 71.1435 37.1944C71.4111 36.6378 71.7832 36.2042 72.2598 35.8937C72.7395 35.58 73.2992 35.4232 73.9388 35.4232C74.3079 35.4232 74.6723 35.4847 75.0321 35.6077C75.3919 35.7307 75.7194 35.9306 76.0146 36.2073C76.3098 36.481 76.545 36.8439 76.7203 37.2959C76.8956 37.748 76.9833 38.3046 76.9833 38.9657V39.427H71.5218V38.486H75.8762C75.8762 38.0862 75.7962 37.7295 75.6363 37.4159C75.4795 37.1022 75.255 36.8546 74.9629 36.6732C74.6738 36.4918 74.3325 36.4011 73.9388 36.4011C73.5052 36.4011 73.1301 36.5087 72.8133 36.7239C72.4997 36.9361 72.2583 37.2129 72.0891 37.5542C71.92 37.8956 71.8354 38.2615 71.8354 38.6521V39.2794C71.8354 39.8145 71.9277 40.2681 72.1122 40.6402C72.2998 41.0092 72.5596 41.2906 72.8918 41.4843C73.2239 41.675 73.6098 41.7703 74.0496 41.7703C74.3355 41.7703 74.5939 41.7303 74.8245 41.6504C75.0582 41.5673 75.2596 41.4443 75.4288 41.2813C75.5979 41.1153 75.7286 40.9092 75.8208 40.6632L76.8726 40.9584C76.7618 41.3152 76.5758 41.6288 76.3144 41.8994C76.053 42.167 75.7301 42.3761 75.3457 42.5268C74.9613 42.6744 74.5293 42.7482 74.0496 42.7482ZM77.9796 36.5302V35.5154H83.7363V36.5302H81.4115V42.6006H80.3229V36.5302H77.9796ZM91.8559 42.7482C91.1917 42.7482 90.6197 42.5914 90.14 42.2777C89.6602 41.964 89.2912 41.532 89.0329 40.9815C88.7746 40.4311 88.6454 39.8022 88.6454 39.0949C88.6454 38.3753 88.7777 37.7403 89.0421 37.1898C89.3097 36.6363 89.6818 36.2042 90.1584 35.8937C90.6381 35.58 91.1978 35.4232 91.8375 35.4232C92.3356 35.4232 92.7846 35.5154 93.1844 35.6999C93.5841 35.8844 93.9117 36.1427 94.1669 36.4749C94.4221 36.807 94.5805 37.1944 94.642 37.6373H93.5534C93.4704 37.3144 93.2859 37.0284 92.9999 36.7793C92.717 36.5271 92.3356 36.4011 91.8559 36.4011C91.4315 36.4011 91.0594 36.5118 90.7396 36.7332C90.4229 36.9515 90.1753 37.2606 89.997 37.6603C89.8217 38.057 89.734 38.5229 89.734 39.058C89.734 39.6054 89.8201 40.082 89.9924 40.4879C90.1676 40.8939 90.4137 41.2091 90.7304 41.4336C91.0502 41.658 91.4254 41.7703 91.8559 41.7703C92.1388 41.7703 92.3956 41.7211 92.6262 41.6227C92.8569 41.5243 93.0521 41.3828 93.2121 41.1983C93.372 41.0138 93.4857 40.7924 93.5534 40.5341H94.642C94.5805 40.9523 94.4283 41.329 94.1853 41.6642C93.9455 41.9963 93.6272 42.2608 93.2305 42.4576C92.8369 42.6513 92.3787 42.7482 91.8559 42.7482ZM100.034 42.6006V33.1537H103.337C103.995 33.1537 104.538 33.2675 104.965 33.495C105.393 33.7195 105.711 34.0224 105.92 34.4037C106.129 34.782 106.234 35.2017 106.234 35.663C106.234 36.0689 106.162 36.4041 106.017 36.6686C105.876 36.9331 105.688 37.1422 105.454 37.2959C105.224 37.4497 104.973 37.5635 104.702 37.6373V37.7295C104.991 37.748 105.282 37.8495 105.574 38.034C105.866 38.2185 106.111 38.4829 106.308 38.8274C106.504 39.1718 106.603 39.5931 106.603 40.0913C106.603 40.5648 106.495 40.9907 106.28 41.369C106.065 41.7472 105.725 42.0471 105.261 42.2685C104.796 42.4899 104.192 42.6006 103.448 42.6006H100.034ZM101.178 41.5858H103.448C104.195 41.5858 104.725 41.4412 105.039 41.1522C105.356 40.86 105.514 40.5064 105.514 40.0913C105.514 39.7714 105.433 39.4762 105.27 39.2056C105.107 38.9319 104.875 38.7136 104.573 38.5506C104.272 38.3845 103.915 38.3015 103.503 38.3015H101.178V41.5858ZM101.178 37.3052H103.3C103.645 37.3052 103.955 37.2375 104.232 37.1022C104.512 36.9669 104.733 36.7762 104.896 36.5302C105.062 36.2842 105.145 35.9951 105.145 35.663C105.145 35.2479 105.001 34.8958 104.712 34.6067C104.423 34.3146 103.964 34.1685 103.337 34.1685H101.178V37.3052ZM110.42 42.7666C109.971 42.7666 109.563 42.6821 109.198 42.5129C108.832 42.3407 108.541 42.0932 108.326 41.7703C108.11 41.4443 108.003 41.0507 108.003 40.5894C108.003 40.1835 108.083 39.8545 108.243 39.6023C108.403 39.3471 108.616 39.1472 108.884 39.0026C109.151 38.8581 109.447 38.7505 109.77 38.6798C110.095 38.6059 110.423 38.5475 110.752 38.5045C111.183 38.4491 111.532 38.4076 111.799 38.3799C112.07 38.3492 112.267 38.2984 112.39 38.2277C112.516 38.157 112.579 38.034 112.579 37.8587V37.8218C112.579 37.3667 112.454 37.013 112.205 36.7608C111.959 36.5087 111.585 36.3826 111.084 36.3826C110.564 36.3826 110.157 36.4964 109.862 36.7239C109.567 36.9515 109.359 37.1944 109.239 37.4528L108.206 37.0837C108.39 36.6532 108.636 36.318 108.944 36.0782C109.254 35.8352 109.593 35.6661 109.959 35.5708C110.328 35.4724 110.691 35.4232 111.047 35.4232C111.275 35.4232 111.536 35.4508 111.831 35.5062C112.13 35.5585 112.417 35.6676 112.694 35.8337C112.974 35.9997 113.206 36.2504 113.391 36.5856C113.575 36.9208 113.667 37.3697 113.667 37.9325V42.6006H112.579V41.6411H112.523C112.45 41.7949 112.327 41.9594 112.154 42.1347C111.982 42.31 111.753 42.4591 111.467 42.5821C111.181 42.7051 110.832 42.7666 110.42 42.7666ZM110.586 41.7887C111.016 41.7887 111.379 41.7042 111.675 41.535C111.973 41.3659 112.197 41.1476 112.348 40.88C112.502 40.6125 112.579 40.3311 112.579 40.0359V39.0395C112.533 39.0949 112.431 39.1456 112.274 39.1918C112.12 39.2348 111.942 39.2733 111.739 39.3071C111.539 39.3378 111.344 39.3655 111.153 39.3901C110.966 39.4116 110.814 39.4301 110.697 39.4455C110.414 39.4824 110.149 39.5423 109.903 39.6254C109.66 39.7053 109.464 39.8268 109.313 39.9898C109.165 40.1497 109.091 40.368 109.091 40.6448C109.091 41.023 109.231 41.309 109.511 41.5028C109.794 41.6934 110.152 41.7887 110.586 41.7887ZM119.529 41.1245L122.001 35.5154H123.035L119.972 42.6006H119.086L116.079 35.5154H117.093L119.529 41.1245ZM116.743 35.5154V42.6006H115.654V35.5154H116.743ZM122.315 42.6006V35.5154H123.404V42.6006H122.315ZM126.485 40.9954L129.898 35.5154H131.153V42.6006H130.064V37.1206L126.669 42.6006H125.396V35.5154H126.485V40.9954ZM134.586 33.1537L134.494 39.9436H133.424L133.331 33.1537H134.586ZM133.959 42.6744C133.731 42.6744 133.536 42.5929 133.373 42.4299C133.21 42.2669 133.128 42.0717 133.128 41.8441C133.128 41.6165 133.21 41.4213 133.373 41.2583C133.536 41.0953 133.731 41.0138 133.959 41.0138C134.186 41.0138 134.382 41.0953 134.545 41.2583C134.708 41.4213 134.789 41.6165 134.789 41.8441C134.789 41.9948 134.751 42.1332 134.674 42.2592C134.6 42.3853 134.5 42.4868 134.374 42.5637C134.251 42.6375 134.113 42.6744 133.959 42.6744Z" fill="black"/>
<defs>
<linearGradient id="paint0_linear_687_40642" x1="17.8435" y1="29.5939" x2="17.8435" y2="0.0362141" gradientUnits="userSpaceOnUse">
<stop/>
<stop offset="0.12" stop-color="#3B3B3B"/>
<stop offset="0.25" stop-color="#6E6E6E"/>
<stop offset="0.37" stop-color="#9A9A9A"/>
<stop offset="0.5" stop-color="#BFBFBF"/>
<stop offset="0.62" stop-color="#DBDBDB"/>
<stop offset="0.75" stop-color="#EFEFEF"/>
<stop offset="0.87" stop-color="#FBFBFB"/>
<stop offset="1" stop-color="white"/>
</linearGradient>
<linearGradient id="paint1_linear_687_40642" x1="8.80465" y1="2.14221" x2="27.6242" y2="20.7438" gradientUnits="userSpaceOnUse">
<stop stop-color="#2C7DB0"/>
<stop offset="0.15" stop-color="#2A79AC"/>
<stop offset="0.31" stop-color="#276FA0"/>
<stop offset="0.46" stop-color="#215F8C"/>
<stop offset="0.48" stop-color="#205C88"/>
<stop offset="0.7" stop-color="#35406A"/>
<stop offset="0.72" stop-color="#373E68"/>
<stop offset="0.86" stop-color="#3B699C"/>
<stop offset="1" stop-color="#4195D1"/>
</linearGradient>
<linearGradient id="paint2_linear_687_40642" x1="9.88087" y1="6.91743" x2="35.681" y2="6.91743" gradientUnits="userSpaceOnUse">
<stop stop-color="#D8E4F5"/>
<stop offset="0.4" stop-color="#DBE6F5"/>
<stop offset="0.8" stop-color="#E7EEF5"/>
<stop offset="1" stop-color="#F1F4F6"/>
</linearGradient>
<linearGradient id="paint3_linear_687_40642" x1="0.0031618" y1="6.6587" x2="15.3999" y2="6.6587" gradientUnits="userSpaceOnUse">
<stop stop-color="#D8E4F5"/>
<stop offset="0.4" stop-color="#DBE6F5"/>
<stop offset="0.8" stop-color="#E7EEF5"/>
<stop offset="1" stop-color="#F1F4F6"/>
</linearGradient>
</defs>
</svg>
