<svg width="244" height="53" viewBox="0 0 244 53" fill="none" xmlns="http://www.w3.org/2000/svg">
<path d="M90.6293 25.357L97.5388 13.9567H103.519V39.0828H98.0583V22.5069H97.7235L91.9656 32.0712H89.0679L83.3099 22.5069H82.9751V39.0828H77.552V13.9567H83.6447L90.6264 25.357H90.6293Z" fill="black"/>
<path d="M127.959 19.0186H114.847V23.7425H126.548V28.6558H114.847V34.0179H128.591V39.0799H109.352V13.9567H127.962V19.0186H127.959Z" fill="black"/>
<path d="M148.609 14.6298C149.836 15.0437 150.875 15.6789 151.767 16.4308C152.621 17.2555 153.291 18.1939 153.773 19.2809C154.255 20.4058 154.48 21.6443 154.48 23.0314C154.48 24.4944 154.22 25.7679 153.701 26.9306C153.144 28.0555 152.437 29.0317 151.473 29.7807C150.581 30.6054 149.467 31.2057 148.205 31.5817C146.941 32.0304 145.567 32.2199 144.119 32.2199H139.068V39.0828H133.497V13.9567H144.566C146.052 13.9567 147.389 14.1811 148.615 14.6328L148.609 14.6298ZM144.116 27.2308C145.602 27.2308 146.754 26.8548 147.608 26.1059C148.462 25.357 148.872 24.3428 148.872 23.0693C148.872 21.7958 148.5 20.8196 147.758 20.1056C146.979 19.3566 145.865 18.9807 144.341 18.9807H139.068V27.2308H144.119H144.116Z" fill="black"/>
<path d="M164.656 30.6812L176.692 13.9538H181.595V39.0799H176.06V23.2908L164.619 39.0799H159.158V13.9567H164.656V30.6841V30.6812Z" fill="black"/>
<path d="M210.717 34.0208H214.319V35.5595L213.837 44.3341H208.824L208.602 39.0828H191.775L191.478 44.3341H186.427L186.13 35.5945V34.0558H187.169C187.688 34.0558 188.208 33.8693 188.73 33.4934C189.25 33.1174 189.697 32.5171 190.029 31.7303C190.699 30.2295 191.181 28.2799 191.478 25.9165C191.775 23.5531 191.922 20.9274 191.922 18.0394V13.9508H210.717V34.015V34.0208ZM196.751 28.0963C196.341 30.6083 195.747 32.5958 195.042 34.0208H205.144V18.9807H197.418C197.38 22.5448 197.158 25.5813 196.748 28.0934L196.751 28.0963Z" fill="black"/>
<path d="M243.997 39.0828H237.832L235.939 34.0937H225.28L223.424 39.0828H217.369L227.583 13.9188H233.711L244 39.0828H243.997ZM234.118 29.1454L230.813 19.581H230.441L227.098 29.1454H234.118Z" fill="black"/>
<path d="M62.8148 17.3256L46.9408 1.29171C45.3217 -0.343148 42.6635 -0.343148 41.0501 1.29171L17.7269 24.8383L27.6121 10.824L27.6294 9.02596L21.9292 3.19176C20.3014 1.57439 17.6403 1.57439 16.0125 3.19176L1.22085 18.0803C-0.406951 19.6977 -0.406951 22.37 1.22085 24.0136L28.7088 51.7567C30.328 53.4032 32.9775 53.4032 34.5966 51.7567L62.8119 23.2763C64.4282 21.6473 64.4282 18.9604 62.8119 17.3285L62.8148 17.3256Z" fill="#5DACE0"/>
<path opacity="0.3" d="M62.8148 17.3256L46.9408 1.29171C45.3217 -0.343148 42.6635 -0.343148 41.0501 1.29171L17.7269 24.8383L27.6121 10.824L27.6294 9.02596L21.9292 3.19176C20.3014 1.57439 17.6403 1.57439 16.0125 3.19176L1.22085 18.0803C-0.406951 19.6977 -0.406951 22.37 1.22085 24.0136L28.7088 51.7567C30.328 53.4032 32.9775 53.4032 34.5966 51.7567L62.8119 23.2763C64.4282 21.6473 64.4282 18.9604 62.8119 17.3285L62.8148 17.3256Z" fill="url(#paint0_linear_2737_10545)" style="mix-blend-mode:multiply"/>
<path opacity="0.3" d="M63.28 17.3489L47.4032 1.30338C45.7811 -0.325653 43.123 -0.325653 41.5038 1.30338L18.1777 24.8558L28.0311 10.8794L28.1004 9.10174L22.38 3.20925C20.7522 1.58897 18.0882 1.58897 16.4604 3.20925L1.68895 18.0833C0.0467162 19.7181 0.0467162 22.3992 1.68895 24.0311L29.1596 51.7741C30.7903 53.409 33.4456 53.409 35.0705 51.7741L63.2829 23.2938C64.8992 21.6473 64.8992 18.9867 63.2829 17.3489H63.28Z" fill="url(#paint1_linear_2737_10545)"/>
<g style="mix-blend-mode:screen">
<path opacity="0.4" d="M41.0507 3.14805C42.6641 1.51611 45.3222 1.51611 46.9414 3.14805L62.8154 19.1819C63.3869 19.7589 63.7303 20.4496 63.9064 21.1927C64.221 19.8318 63.8746 18.3222 62.8154 17.2585L46.9414 1.23051C45.3222 -0.410172 42.6641 -0.410172 41.0507 1.23051L17.7275 24.7742L41.0507 3.14805Z" fill="url(#paint2_linear_2737_10545)"/>
<path opacity="0.4" d="M16.0124 5.05976C17.6402 3.43073 20.3013 3.41907 21.9291 5.05976L27.5658 10.7978L27.6293 9.02597L21.9291 3.1364C20.3013 1.49571 17.6402 1.49571 16.0124 3.1364L1.22074 18.0133C0.16151 19.0683 -0.199263 20.5632 0.118217 21.9358C0.294274 21.2073 0.65216 20.5049 1.22074 19.9338L16.0124 5.05976Z" fill="url(#paint3_linear_2737_10545)"/>
</g>
<defs>
<linearGradient id="paint0_linear_2737_10545" x1="32.0135" y1="52.9894" x2="32.0135" y2="0.0648383" gradientUnits="userSpaceOnUse">
<stop/>
<stop offset="0.12" stop-color="#3B3B3B"/>
<stop offset="0.25" stop-color="#6E6E6E"/>
<stop offset="0.37" stop-color="#9A9A9A"/>
<stop offset="0.5" stop-color="#BFBFBF"/>
<stop offset="0.62" stop-color="#DBDBDB"/>
<stop offset="0.75" stop-color="#EFEFEF"/>
<stop offset="0.87" stop-color="#FBFBFB"/>
<stop offset="1" stop-color="white"/>
</linearGradient>
<linearGradient id="paint1_linear_2737_10545" x1="15.7966" y1="3.8358" x2="49.4947" y2="37.21" gradientUnits="userSpaceOnUse">
<stop stop-color="#2C7DB0"/>
<stop offset="0.15" stop-color="#2A79AC"/>
<stop offset="0.31" stop-color="#276FA0"/>
<stop offset="0.46" stop-color="#215F8C"/>
<stop offset="0.48" stop-color="#205C88"/>
<stop offset="0.7" stop-color="#35406A"/>
<stop offset="0.72" stop-color="#373E68"/>
<stop offset="0.86" stop-color="#3B699C"/>
<stop offset="1" stop-color="#4195D1"/>
</linearGradient>
<linearGradient id="paint2_linear_2737_10545" x1="17.7275" y1="12.386" x2="64.016" y2="12.386" gradientUnits="userSpaceOnUse">
<stop stop-color="#D8E4F5"/>
<stop offset="0.4" stop-color="#DBE6F5"/>
<stop offset="0.8" stop-color="#E7EEF5"/>
<stop offset="1" stop-color="#F1F4F6"/>
</linearGradient>
<linearGradient id="paint3_linear_2737_10545" x1="0.00565604" y1="11.9227" x2="27.6293" y2="11.9227" gradientUnits="userSpaceOnUse">
<stop stop-color="#D8E4F5"/>
<stop offset="0.4" stop-color="#DBE6F5"/>
<stop offset="0.8" stop-color="#E7EEF5"/>
<stop offset="1" stop-color="#F1F4F6"/>
</linearGradient>
</defs>
</svg>
