<svg width="136" height="46" viewBox="0 0 136 46" fill="none" xmlns="http://www.w3.org/2000/svg">
<path d="M50.5145 14.1614L54.3657 7.79443H57.6989V21.827H54.6553V12.5696H54.4687L51.2594 17.9112H49.6442L46.4349 12.5696H46.2483V21.827H43.2256V7.79443H46.6215L50.5129 14.1614H50.5145Z" fill="black"/>
<path d="M71.3214 10.6215H64.0131V13.2597H70.5347V16.0037H64.0131V18.9984H71.6737V21.8254H60.9502V7.79443H71.323V10.6215H71.3214Z" fill="black"/>
<path d="M82.8313 8.17039C83.515 8.4015 84.0941 8.75631 84.5912 9.17621C85.0674 9.6368 85.4406 10.1609 85.7092 10.7679C85.9779 11.3962 86.1033 12.0879 86.1033 12.8626C86.1033 13.6796 85.9586 14.3908 85.669 15.0402C85.3585 15.6685 84.9644 16.2137 84.4271 16.632C83.93 17.0925 83.3091 17.4278 82.6061 17.6378C81.9015 17.8884 81.1357 17.9942 80.3282 17.9942H77.513V21.827H74.4082V7.79443H80.5775C81.406 7.79443 82.1508 7.91975 82.8345 8.17202L82.8313 8.17039ZM80.3266 15.2079C81.155 15.2079 81.7969 14.9979 82.2731 14.5796C82.7492 14.1614 82.9777 13.595 82.9777 12.8837C82.9777 12.1725 82.7702 11.6273 82.3567 11.2285C81.9224 10.8103 81.3014 10.6003 80.452 10.6003H77.513V15.2079H80.3282H80.3266Z" fill="black"/>
<path d="M91.7755 17.135L98.4837 7.79297H101.217V21.8256H98.1314V13.0076L91.7546 21.8256H88.7109V7.7946H91.7755V17.1367V17.135Z" fill="black"/>
<path d="M117.449 19.0003H119.456V19.8597L119.188 24.7602H116.393L116.269 21.8274H106.891L106.725 24.7602H103.91L103.744 19.8792V19.0199H104.323C104.613 19.0199 104.902 18.9157 105.194 18.7058C105.483 18.4958 105.732 18.1605 105.917 17.7211C106.291 16.8829 106.559 15.7941 106.725 14.4742C106.891 13.1542 106.973 11.6878 106.973 10.0749V7.7915H117.449V18.9971V19.0003ZM109.664 15.6916C109.436 17.0945 109.104 18.2045 108.712 19.0003H114.342V10.6006H110.036C110.015 12.5911 109.891 14.287 109.662 15.6899L109.664 15.6916Z" fill="black"/>
<path d="M135.998 21.8272H132.562L131.507 19.0409H125.566L124.531 21.8272H121.156L126.849 7.77344H130.265L136 21.8272H135.998ZM130.491 16.2773L128.65 10.9357H128.442L126.579 16.2773H130.491Z" fill="black"/>
<path d="M35.0114 9.67611L26.1637 0.721407C25.2612 -0.191641 23.7796 -0.191641 22.8803 0.721407L9.88055 13.8719L15.3903 6.04508L15.4 5.04089L12.2228 1.78256C11.3155 0.879278 9.83229 0.879278 8.92499 1.78256L0.680474 10.0976C-0.226825 11.0009 -0.226825 12.4934 0.680474 13.4113L16.0016 28.9054C16.9041 29.825 18.3808 29.825 19.2833 28.9054L35.0098 12.9995C35.9107 12.0897 35.9107 10.5892 35.0098 9.67774L35.0114 9.67611Z" fill="#5DACE0"/>
<path opacity="0.3" d="M35.0114 9.67611L26.1637 0.721407C25.2612 -0.191641 23.7796 -0.191641 22.8803 0.721407L9.88055 13.8719L15.3903 6.04508L15.4 5.04089L12.2228 1.78256C11.3155 0.879278 9.83229 0.879278 8.92499 1.78256L0.680474 10.0976C-0.226825 11.0009 -0.226825 12.4934 0.680474 13.4113L16.0016 28.9054C16.9041 29.825 18.3808 29.825 19.2833 28.9054L35.0098 12.9995C35.9107 12.0897 35.9107 10.5892 35.0098 9.67774L35.0114 9.67611Z" fill="url(#paint0_linear_2737_4392)" style="mix-blend-mode:multiply"/>
<path opacity="0.3" d="M35.2707 9.68897L26.4214 0.727755C25.5173 -0.182038 24.0357 -0.182038 23.1332 0.727755L10.1318 13.8815L15.6239 6.07584L15.6625 5.08304L12.4741 1.79216C11.5668 0.887253 10.0819 0.887253 9.17464 1.79216L0.941389 10.0991C0.0260472 11.0122 0.0260472 12.5095 0.941389 13.4209L16.2529 28.915C17.1618 29.8281 18.6418 29.8281 19.5474 28.915L35.2724 13.0091C36.1732 12.0896 36.1732 10.6036 35.2724 9.68897H35.2707Z" fill="url(#paint1_linear_2737_4392)"/>
<g style="mix-blend-mode:screen">
<path opacity="0.4" d="M22.8807 1.75815C23.7799 0.846726 25.2615 0.846726 26.164 1.75815L35.0118 10.7128C35.3303 11.0351 35.5217 11.4208 35.6198 11.8358C35.7952 11.0758 35.6022 10.2327 35.0118 9.63867L26.164 0.687227C25.2615 -0.229076 23.7799 -0.229076 22.8807 0.687227L9.88087 13.8361L22.8807 1.75815Z" fill="url(#paint2_linear_2737_4392)"/>
<path opacity="0.4" d="M8.92493 2.82585C9.83223 1.91606 11.3154 1.90955 12.2227 2.82585L15.3645 6.03047L15.3999 5.04093L12.2227 1.75168C11.3154 0.835377 9.83223 0.835377 8.92493 1.75168L0.680419 10.0603C0.0900308 10.6494 -0.111055 11.4843 0.0659006 12.2509C0.16403 11.844 0.363507 11.4518 0.680419 11.1328L8.92493 2.82585Z" fill="url(#paint3_linear_2737_4392)"/>
</g>
<path d="M43.9779 42.6006V41.7703L47.0961 38.3569C47.4621 37.9571 47.7634 37.6096 48.0002 37.3144C48.237 37.0161 48.4123 36.7362 48.5261 36.4749C48.6429 36.2104 48.7014 35.9336 48.7014 35.6446C48.7014 35.3124 48.6214 35.0249 48.4615 34.782C48.3047 34.539 48.0894 34.3515 47.8157 34.2192C47.542 34.087 47.2345 34.0209 46.8932 34.0209C46.5303 34.0209 46.2135 34.0962 45.9429 34.2469C45.6754 34.3945 45.4678 34.6021 45.3202 34.8696C45.1757 35.1372 45.1034 35.4508 45.1034 35.8106H44.0148C44.0148 35.2571 44.1424 34.7712 44.3977 34.353C44.6529 33.9348 45.0004 33.6088 45.4401 33.3751C45.883 33.1414 46.3796 33.0245 46.9301 33.0245C47.4836 33.0245 47.9741 33.1414 48.4015 33.3751C48.829 33.6088 49.1642 33.924 49.4071 34.3207C49.65 34.7174 49.7715 35.1587 49.7715 35.6446C49.7715 35.9921 49.7085 36.3319 49.5824 36.664C49.4594 36.993 49.2441 37.3605 48.9366 37.7664C48.6322 38.1693 48.2093 38.6613 47.6681 39.2425L45.5462 41.512V41.5858H49.9376V42.6006H43.9779ZM54.7948 42.7297C54.2536 42.7297 53.7662 42.6221 53.3326 42.4069C52.899 42.1916 52.5515 41.8964 52.2901 41.5212C52.0287 41.146 51.8857 40.7186 51.8611 40.2389H52.9681C53.0112 40.6663 53.2049 41.02 53.5494 41.2998C53.8968 41.5766 54.312 41.7149 54.7948 41.7149C55.1823 41.7149 55.5267 41.6242 55.828 41.4428C56.1325 41.2614 56.3708 41.0123 56.543 40.6955C56.7183 40.3757 56.806 40.0144 56.806 39.6115C56.806 39.1995 56.7152 38.832 56.5338 38.5091C56.3554 38.1831 56.1094 37.9263 55.7958 37.7388C55.4821 37.5512 55.1238 37.4558 54.721 37.4528C54.4319 37.4497 54.1352 37.4943 53.8307 37.5865C53.5263 37.6757 53.2757 37.791 53.0789 37.9325L52.0087 37.8033L52.5807 33.1537H57.4886V34.1685H53.5401L53.208 36.9546H53.2634C53.4571 36.8008 53.7 36.6732 53.9922 36.5717C54.2843 36.4702 54.5888 36.4195 54.9055 36.4195C55.4836 36.4195 55.9987 36.5579 56.4508 36.8347C56.9059 37.1083 57.2626 37.4835 57.5209 37.9602C57.7823 38.4368 57.913 38.9811 57.913 39.5931C57.913 40.1958 57.7777 40.734 57.5071 41.2075C57.2395 41.678 56.8705 42.0501 56.4 42.3238C55.9295 42.5944 55.3945 42.7297 54.7948 42.7297ZM62.7898 42.6006V41.5858H63.0481C63.2603 41.5858 63.4372 41.5443 63.5786 41.4612C63.7201 41.3751 63.8339 41.226 63.92 41.0138C64.0091 40.7985 64.0768 40.5002 64.1229 40.1189C64.1721 39.7345 64.2075 39.2456 64.229 38.6521L64.3582 35.5154H69.0816V42.6006H67.993V36.5302H65.3914L65.2807 39.058C65.2561 39.6392 65.2038 40.1512 65.1239 40.594C65.047 41.0338 64.9286 41.4028 64.7687 41.7011C64.6119 41.9994 64.4028 42.2239 64.1414 42.3746C63.88 42.5252 63.5525 42.6006 63.1589 42.6006H62.7898ZM74.0496 42.7482C73.3669 42.7482 72.778 42.5975 72.2829 42.2961C71.7908 41.9917 71.4111 41.5673 71.1435 41.023C70.8791 40.4756 70.7468 39.8391 70.7468 39.1133C70.7468 38.3876 70.8791 37.748 71.1435 37.1944C71.4111 36.6378 71.7832 36.2042 72.2598 35.8937C72.7395 35.58 73.2992 35.4232 73.9388 35.4232C74.3079 35.4232 74.6723 35.4847 75.0321 35.6077C75.3919 35.7307 75.7194 35.9306 76.0146 36.2073C76.3098 36.481 76.545 36.8439 76.7203 37.2959C76.8956 37.748 76.9833 38.3046 76.9833 38.9657V39.427H71.5218V38.486H75.8762C75.8762 38.0862 75.7962 37.7295 75.6363 37.4159C75.4795 37.1022 75.255 36.8546 74.9629 36.6732C74.6738 36.4918 74.3325 36.4011 73.9388 36.4011C73.5052 36.4011 73.1301 36.5087 72.8133 36.7239C72.4997 36.9361 72.2583 37.2129 72.0891 37.5542C71.92 37.8956 71.8354 38.2615 71.8354 38.6521V39.2794C71.8354 39.8145 71.9277 40.2681 72.1122 40.6402C72.2998 41.0092 72.5596 41.2906 72.8918 41.4843C73.2239 41.675 73.6098 41.7703 74.0496 41.7703C74.3355 41.7703 74.5939 41.7303 74.8245 41.6504C75.0582 41.5673 75.2596 41.4443 75.4288 41.2813C75.5979 41.1153 75.7286 40.9092 75.8208 40.6632L76.8726 40.9584C76.7618 41.3152 76.5758 41.6288 76.3144 41.8994C76.053 42.167 75.7301 42.3761 75.3457 42.5268C74.9613 42.6744 74.5293 42.7482 74.0496 42.7482ZM77.9796 36.5302V35.5154H83.7363V36.5302H81.4115V42.6006H80.3229V36.5302H77.9796ZM88.9776 42.6006V35.5154H91.8744C92.637 35.5154 93.2428 35.6876 93.6918 36.032C94.1408 36.3765 94.3652 36.8316 94.3652 37.3974C94.3652 37.8279 94.2376 38.1616 93.9824 38.3984C93.7271 38.6321 93.3996 38.7905 92.9999 38.8735C93.2613 38.9104 93.515 39.0026 93.761 39.1503C94.0101 39.2979 94.2161 39.5008 94.3791 39.7591C94.5421 40.0144 94.6236 40.328 94.6236 40.7001C94.6236 41.063 94.5313 41.3874 94.3468 41.6734C94.1623 41.9594 93.8978 42.1854 93.5534 42.3515C93.209 42.5176 92.7969 42.6006 92.3172 42.6006H88.9776ZM90.0108 41.6042H92.3172C92.6923 41.6042 92.986 41.5151 93.1982 41.3367C93.4104 41.1583 93.5165 40.9154 93.5165 40.6079C93.5165 40.2419 93.4104 39.9544 93.1982 39.7453C92.986 39.5331 92.6923 39.427 92.3172 39.427H90.0108V41.6042ZM90.0108 38.486H91.8744C92.1665 38.486 92.4171 38.446 92.6262 38.3661C92.8353 38.2831 92.9953 38.1662 93.106 38.0155C93.2197 37.8618 93.2766 37.6803 93.2766 37.4712C93.2766 37.1729 93.1521 36.9392 92.903 36.7701C92.6539 36.5979 92.311 36.5118 91.8744 36.5118H90.0108V38.486ZM100.072 42.6006V33.1537H103.375C104.033 33.1537 104.576 33.2675 105.003 33.495C105.431 33.7195 105.749 34.0224 105.958 34.4037C106.167 34.782 106.272 35.2017 106.272 35.663C106.272 36.0689 106.2 36.4041 106.055 36.6686C105.914 36.9331 105.726 37.1422 105.492 37.2959C105.262 37.4497 105.011 37.5635 104.74 37.6373V37.7295C105.03 37.748 105.32 37.8495 105.612 38.034C105.904 38.2185 106.149 38.4829 106.346 38.8274C106.543 39.1718 106.641 39.5931 106.641 40.0913C106.641 40.5648 106.533 40.9907 106.318 41.369C106.103 41.7472 105.763 42.0471 105.299 42.2685C104.834 42.4899 104.23 42.6006 103.486 42.6006H100.072ZM101.216 41.5858H103.486C104.233 41.5858 104.764 41.4412 105.077 41.1522C105.394 40.86 105.552 40.5064 105.552 40.0913C105.552 39.7714 105.471 39.4762 105.308 39.2056C105.145 38.9319 104.913 38.7136 104.611 38.5506C104.31 38.3845 103.953 38.3015 103.541 38.3015H101.216V41.5858ZM101.216 37.3052H103.338C103.683 37.3052 103.993 37.2375 104.27 37.1022C104.55 36.9669 104.771 36.7762 104.934 36.5302C105.1 36.2842 105.183 35.9951 105.183 35.663C105.183 35.2479 105.039 34.8958 104.75 34.6067C104.461 34.3146 104.002 34.1685 103.375 34.1685H101.216V37.3052ZM110.458 42.7666C110.009 42.7666 109.602 42.6821 109.236 42.5129C108.87 42.3407 108.579 42.0932 108.364 41.7703C108.149 41.4443 108.041 41.0507 108.041 40.5894C108.041 40.1835 108.121 39.8545 108.281 39.6023C108.441 39.3471 108.654 39.1472 108.922 39.0026C109.189 38.8581 109.485 38.7505 109.808 38.6798C110.134 38.6059 110.461 38.5475 110.79 38.5045C111.221 38.4491 111.57 38.4076 111.837 38.3799C112.108 38.3492 112.305 38.2984 112.428 38.2277C112.554 38.157 112.617 38.034 112.617 37.8587V37.8218C112.617 37.3667 112.492 37.013 112.243 36.7608C111.997 36.5087 111.623 36.3826 111.122 36.3826C110.602 36.3826 110.195 36.4964 109.9 36.7239C109.605 36.9515 109.397 37.1944 109.277 37.4528L108.244 37.0837C108.428 36.6532 108.674 36.318 108.982 36.0782C109.292 35.8352 109.631 35.6661 109.997 35.5708C110.366 35.4724 110.729 35.4232 111.085 35.4232C111.313 35.4232 111.574 35.4508 111.869 35.5062C112.168 35.5585 112.455 35.6676 112.732 35.8337C113.012 35.9997 113.244 36.2504 113.429 36.5856C113.613 36.9208 113.705 37.3697 113.705 37.9325V42.6006H112.617V41.6411H112.561C112.488 41.7949 112.365 41.9594 112.192 42.1347C112.02 42.31 111.791 42.4591 111.505 42.5821C111.219 42.7051 110.87 42.7666 110.458 42.7666ZM110.624 41.7887C111.055 41.7887 111.417 41.7042 111.713 41.535C112.011 41.3659 112.235 41.1476 112.386 40.88C112.54 40.6125 112.617 40.3311 112.617 40.0359V39.0395C112.571 39.0949 112.469 39.1456 112.312 39.1918C112.159 39.2348 111.98 39.2733 111.777 39.3071C111.577 39.3378 111.382 39.3655 111.191 39.3901C111.004 39.4116 110.852 39.4301 110.735 39.4455C110.452 39.4824 110.187 39.5423 109.941 39.6254C109.698 39.7053 109.502 39.8268 109.351 39.9898C109.203 40.1497 109.129 40.368 109.129 40.6448C109.129 41.023 109.269 41.309 109.549 41.5028C109.832 41.6934 110.19 41.7887 110.624 41.7887ZM119.567 41.1245L122.039 35.5154H123.073L120.01 42.6006H119.124L116.117 35.5154H117.131L119.567 41.1245ZM116.781 35.5154V42.6006H115.692V35.5154H116.781ZM122.353 42.6006V35.5154H123.442V42.6006H122.353ZM126.523 40.9954L129.936 35.5154H131.191V42.6006H130.102V37.1206L126.708 42.6006H125.434V35.5154H126.523V40.9954ZM134.624 33.1537L134.532 39.9436H133.462L133.369 33.1537H134.624ZM133.997 42.6744C133.769 42.6744 133.574 42.5929 133.411 42.4299C133.248 42.2669 133.167 42.0717 133.167 41.8441C133.167 41.6165 133.248 41.4213 133.411 41.2583C133.574 41.0953 133.769 41.0138 133.997 41.0138C134.224 41.0138 134.42 41.0953 134.583 41.2583C134.746 41.4213 134.827 41.6165 134.827 41.8441C134.827 41.9948 134.789 42.1332 134.712 42.2592C134.638 42.3853 134.538 42.4868 134.412 42.5637C134.289 42.6375 134.151 42.6744 133.997 42.6744Z" fill="black"/>
<defs>
<linearGradient id="paint0_linear_2737_4392" x1="17.8435" y1="29.5939" x2="17.8435" y2="0.0362141" gradientUnits="userSpaceOnUse">
<stop/>
<stop offset="0.12" stop-color="#3B3B3B"/>
<stop offset="0.25" stop-color="#6E6E6E"/>
<stop offset="0.37" stop-color="#9A9A9A"/>
<stop offset="0.5" stop-color="#BFBFBF"/>
<stop offset="0.62" stop-color="#DBDBDB"/>
<stop offset="0.75" stop-color="#EFEFEF"/>
<stop offset="0.87" stop-color="#FBFBFB"/>
<stop offset="1" stop-color="white"/>
</linearGradient>
<linearGradient id="paint1_linear_2737_4392" x1="8.80465" y1="2.14208" x2="27.6242" y2="20.7437" gradientUnits="userSpaceOnUse">
<stop stop-color="#2C7DB0"/>
<stop offset="0.15" stop-color="#2A79AC"/>
<stop offset="0.31" stop-color="#276FA0"/>
<stop offset="0.46" stop-color="#215F8C"/>
<stop offset="0.48" stop-color="#205C88"/>
<stop offset="0.7" stop-color="#35406A"/>
<stop offset="0.72" stop-color="#373E68"/>
<stop offset="0.86" stop-color="#3B699C"/>
<stop offset="1" stop-color="#4195D1"/>
</linearGradient>
<linearGradient id="paint2_linear_2737_4392" x1="9.88087" y1="6.91743" x2="35.681" y2="6.91743" gradientUnits="userSpaceOnUse">
<stop stop-color="#D8E4F5"/>
<stop offset="0.4" stop-color="#DBE6F5"/>
<stop offset="0.8" stop-color="#E7EEF5"/>
<stop offset="1" stop-color="#F1F4F6"/>
</linearGradient>
<linearGradient id="paint3_linear_2737_4392" x1="0.0031618" y1="6.6587" x2="15.3999" y2="6.6587" gradientUnits="userSpaceOnUse">
<stop stop-color="#D8E4F5"/>
<stop offset="0.4" stop-color="#DBE6F5"/>
<stop offset="0.8" stop-color="#E7EEF5"/>
<stop offset="1" stop-color="#F1F4F6"/>
</linearGradient>
</defs>
</svg>
