<svg width="20" height="20" viewBox="0 0 20 20" fill="none" xmlns="http://www.w3.org/2000/svg">
<path fill-rule="evenodd" clip-rule="evenodd" d="M10.1934 18.9486C8.4269 18.9486 7.60599 18.6896 6.17907 17.6536C5.27649 18.8191 2.41835 19.73 2.29369 18.1716C2.29369 17.0018 2.03581 16.0133 1.74354 14.9342C1.39542 13.6046 1 12.124 1 9.97864C1 4.85477 5.18624 1 10.1461 1C15.1103 1 18.9999 5.0447 18.9999 10.0261C19.0166 14.9305 15.0765 18.9225 10.1934 18.9486ZM10.2664 5.42888C7.85099 5.3037 5.96846 6.98288 5.55156 9.61604C5.20772 11.796 5.81804 14.4507 6.33809 14.5888C6.58737 14.6493 7.21488 14.1399 7.60599 13.7471C8.25273 14.1958 9.00585 14.4653 9.78938 14.5284C12.2922 14.6493 14.4308 12.7356 14.5988 10.2247C14.6966 7.70844 12.7696 5.5772 10.2664 5.4332V5.42888Z" fill="#545F71"/>
</svg>
