<svg width="19" height="19" viewBox="0 0 19 19" fill="none" xmlns="http://www.w3.org/2000/svg">
<path d="M1.77137 12.7235L3.06196 12.9256C4.01468 13.0748 4.69507 13.9474 4.6249 14.9305L4.52981 16.2629C4.50212 16.6511 4.70891 17.0165 5.05141 17.1856L6.00597 17.6559C6.34846 17.8249 6.75744 17.7616 7.03719 17.4982L7.99634 16.5917C8.70354 15.923 9.7947 15.923 10.5027 16.5917L11.4619 17.4982C11.7416 17.7627 12.1497 17.8249 12.4931 17.6559L13.4495 17.1847C13.7911 17.0165 13.997 16.652 13.9693 16.2649L13.8741 14.9305C13.804 13.9474 14.4844 13.0748 15.4371 12.9256L16.7277 12.7235C17.1034 12.665 17.4062 12.3769 17.4911 11.9973L17.7266 10.9416C17.8116 10.5619 17.661 10.1681 17.3472 9.949L16.2698 9.19443C15.4749 8.6373 15.2321 7.54942 15.7122 6.69474L16.363 5.53696C16.5523 5.19982 16.521 4.77769 16.2837 4.47361L15.6236 3.62652C15.3863 3.32243 14.9912 3.19684 14.6275 3.31111L13.3794 3.70207C12.4571 3.99104 11.474 3.50658 11.1194 2.58961L10.6412 1.34967C10.5008 0.987041 10.1584 0.749065 9.77712 0.750003L8.71913 0.75284C8.33786 0.753778 7.99634 0.993654 7.85787 1.35723L7.39161 2.583C7.04082 3.50564 6.05305 3.99387 5.12803 3.70301L3.82821 3.29506C3.46355 3.17984 3.06658 3.30638 2.82933 3.61236L2.17387 4.46039C1.93662 4.7673 1.908 5.19038 2.10095 5.52751L2.76655 6.68813C3.25676 7.54367 3.01673 8.64199 2.21726 9.20205L1.15284 9.94806C0.83896 10.1681 0.688493 10.5619 0.773423 10.9406L1.00883 11.9964C1.09284 12.3769 1.39563 12.665 1.77137 12.7235Z" stroke="#545F71" stroke-width="1.5" stroke-linecap="round" stroke-linejoin="round"/>
<path d="M11.1153 7.38433C12.1453 8.41441 12.1453 10.0851 11.1153 11.1152C10.0852 12.1451 8.41453 12.1451 7.38445 11.1152C6.35444 10.0851 6.35444 8.41441 7.38445 7.38433C8.41453 6.35431 10.0852 6.35431 11.1153 7.38433Z" stroke="#545F71" stroke-width="1.5" stroke-linecap="round" stroke-linejoin="round"/>
</svg>
