<svg width="20" height="20" viewBox="0 0 20 20" fill="none" xmlns="http://www.w3.org/2000/svg">
<path d="M1.88598 18.7502H11.1176C11.8184 18.7502 12.3698 18.1688 12.2302 17.4821C11.8447 15.5861 10.5856 12.2329 6.50183 12.2329C2.41807 12.2329 1.15899 15.5861 0.773468 17.4821C0.633825 18.1688 1.18522 18.7502 1.88598 18.7502Z" stroke="#545F71" stroke-width="1.5" stroke-linecap="round" stroke-linejoin="round"/>
<path d="M14.2605 12.2329C16.8411 12.2329 17.898 14.8993 18.3246 16.821C18.555 17.8588 17.7156 18.7502 16.6525 18.7502H15.5019" stroke="#545F71" stroke-width="1.5" stroke-linecap="round" stroke-linejoin="round"/>
<path d="M6.50181 7.57759C8.38719 7.57759 9.9156 6.04918 9.9156 4.16379C9.9156 2.27841 8.38719 0.75 6.50181 0.75C4.61642 0.75 3.08801 2.27841 3.08801 4.16379C3.08801 6.04918 4.61642 7.57759 6.50181 7.57759Z" stroke="#545F71" stroke-width="1.5" stroke-linecap="round" stroke-linejoin="round"/>
<path d="M13.0192 7.57759C14.9046 7.57759 16.1226 6.04917 16.1226 4.16379C16.1226 2.27841 14.9046 0.75 13.0192 0.75" stroke="#545F71" stroke-width="1.5" stroke-linecap="round" stroke-linejoin="round"/>
</svg>
